<svg xmlns="http://www.w3.org/2000/svg" version="1.1" x="0" y="0" width="114" height="54" viewBox="0 0 114 54" enable-background="new 0 0 114 54" xml:space="preserve"><path fill="#FFFFFF" d="M0 36h11.5v18H7.9V39H3.7v15H0V36zM17.6 36h4.5l4.8 18h-3.8l-0.8-3.8h-4.8l-0.8 3.8h-3.8L17.6 36zM21.6 47.2l-1.7-8.1H19.8L18 47.2H21.6zM28.1 36h6.4c0.9 0 1.7 0.2 2.3 0.5s1.1 0.7 1.5 1.2c0.4 0.5 0.7 1.1 0.8 1.7 0.2 0.6 0.3 1.3 0.3 2 0 0.9-0.1 1.8-0.4 2.4 -0.3 0.7-0.7 1.2-1.2 1.7 -0.5 0.4-1.1 0.8-1.8 1 -0.7 0.2-1.5 0.3-2.3 0.3H31.7v7.2h-3.6V36zM33.3 44.1c0.7 0 1.3-0.2 1.8-0.7 0.4-0.4 0.7-1.1 0.7-2 0-0.9-0.2-1.6-0.6-2.1 -0.4-0.5-1-0.7-1.9-0.7H31.7v5.5H33.3zM44.1 39H40.2v-3h11.5v3h-3.9v15h-3.6V39zM53.3 36h3.6v6.9h4.2v-6.9h3.6v18h-3.6v-8h-4.2v8h-3.6V36zM67.3 36h10.1v3H70.9v4.2h6.1v3H70.9v4.8h6.7v3H67.3V36zM79.4 36h6.4c0.9 0 1.7 0.2 2.3 0.5 0.6 0.3 1.1 0.7 1.5 1.2 0.4 0.5 0.7 1.1 0.8 1.7 0.2 0.6 0.3 1.3 0.3 2 0 0.9-0.1 1.8-0.4 2.4 -0.3 0.7-0.7 1.2-1.2 1.7 -0.5 0.4-1.1 0.8-1.8 1 -0.7 0.2-1.5 0.3-2.3 0.3h-1.9v7.2H79.4V36zM84.7 44.1c0.7 0 1.3-0.2 1.8-0.7 0.4-0.4 0.7-1.1 0.7-2 0-0.9-0.2-1.6-0.6-2.1 -0.4-0.5-1-0.7-1.9-0.7h-1.5v5.5H84.7zM92.5 36h3.6v6.8h1.9c0.9 0 1.7 0.1 2.5 0.3 0.7 0.2 1.3 0.5 1.8 0.9 0.5 0.4 0.9 1 1.1 1.7 0.3 0.7 0.4 1.6 0.4 2.6 0 1-0.1 1.9-0.4 2.6 -0.3 0.7-0.6 1.3-1.1 1.8 -0.5 0.5-1.1 0.8-1.8 1 -0.7 0.2-1.5 0.3-2.4 0.3H92.5V36zM97.2 51.2c1.1 0 1.9-0.2 2.3-0.6 0.4-0.4 0.7-1.2 0.7-2.3 0-0.6-0.1-1-0.2-1.4 -0.1-0.4-0.3-0.6-0.5-0.9 -0.2-0.2-0.5-0.4-0.9-0.4 -0.4-0.1-0.8-0.1-1.2-0.1H96.2v5.7H97.2zM105.3 36h3.6v18h-3.6V36z"/><path fill="#FFFFFF" d="M0 6h10.5v3H3.7v4h2.2c0.9 0 1.7 0.1 2.4 0.3 0.7 0.2 1.3 0.5 1.8 0.9 0.5 0.4 0.9 1 1.1 1.7 0.3 0.7 0.4 1.6 0.4 2.6 0 1-0.1 1.9-0.4 2.6 -0.3 0.7-0.7 1.3-1.2 1.8 -0.5 0.5-1.2 0.8-1.9 1 -0.7 0.2-1.6 0.3-2.5 0.3H0V6zM4.9 21.2c0.5 0 1 0 1.3-0.1 0.4-0.1 0.7-0.2 0.9-0.5 0.2-0.2 0.4-0.5 0.5-0.9 0.1-0.4 0.2-0.8 0.2-1.4 0-1-0.2-1.7-0.7-2.1 -0.5-0.4-1.2-0.5-2.2-0.5H3.7v5.5H4.9zM13.9 6h3.5V17.5l4.4-11.6h3.9v18h-3.5V12.5l-4.4 11.5h-3.9V6zM33.2 24.3c-1.1 0-2-0.1-2.7-0.3 -0.7-0.2-1.3-0.6-1.8-1 -0.5-0.5-0.8-1-1-1.8 -0.2-0.7-0.3-1.5-0.3-2.5v-0.2h3.6v0.2c0 0.4 0 0.8 0.1 1.1 0.1 0.4 0.2 0.7 0.3 1 0.2 0.3 0.4 0.5 0.7 0.7 0.3 0.2 0.7 0.3 1.2 0.3 0.8 0 1.3-0.2 1.7-0.7 0.4-0.4 0.6-1.2 0.6-2.1 0-1-0.2-1.8-0.6-2.2 -0.4-0.4-1.1-0.6-2-0.6 -0.1 0-0.3 0-0.5 0s-0.5 0-0.6 0v-2.8c0.1 0 0.2 0 0.3 0 0.1 0 0.3 0 0.3 0 1 0 1.7-0.2 2.1-0.7 0.4-0.4 0.6-1.2 0.6-2.2 0-0.8-0.2-1.3-0.5-1.7C34.5 8.5 34 8.3 33.5 8.3c-0.6 0-1 0.1-1.4 0.4 -0.4 0.2-0.6 0.6-0.7 1.2 0 0.2-0.1 0.3-0.1 0.5 0 0.1 0 0.3 0 0.5h-3.6V10.7c0-1.7 0.5-3 1.5-3.8s2.4-1.3 4.3-1.3c1.7 0 3.1 0.4 4 1.2 0.9 0.8 1.4 2 1.4 3.5 0 0.4-0.1 0.9-0.2 1.3 -0.1 0.4-0.3 0.8-0.5 1.2 -0.2 0.4-0.5 0.7-0.8 1 -0.3 0.3-0.7 0.5-1.2 0.6 1 0.2 1.8 0.7 2.3 1.4 0.6 0.7 0.8 1.6 0.8 2.8 0 1.9-0.5 3.3-1.6 4.3C36.7 23.8 35.2 24.3 33.2 24.3zM41.7 6h3.6v6.9h4.2V6h3.6v18h-3.6v-8h-4.2v8h-3.6V6zM55.7 6h10.1v3h-6.4v4.2h6.1v3h-6.1v4.8h6.7v3H55.7V6zM73.6 24.3c-1.4 0-2.4-0.2-3.3-0.7s-1.4-1.1-1.9-1.9c-0.4-0.8-0.7-1.8-0.8-2.9 -0.1-1.1-0.2-2.4-0.2-3.8 0-1.4 0.1-2.6 0.2-3.8 0.1-1.2 0.4-2.1 0.8-3 0.4-0.8 1-1.5 1.9-1.9 0.8-0.5 1.9-0.7 3.3-0.7 1.3 0 2.3 0.2 3.1 0.6 0.8 0.4 1.3 1 1.7 1.6 0.4 0.6 0.6 1.3 0.7 2.1 0.1 0.7 0.1 1.5 0.1 2.1h-3.6c0-1.3-0.2-2.3-0.5-2.9 -0.3-0.6-0.9-0.9-1.7-0.9 -0.5 0-0.8 0.1-1.1 0.4 -0.3 0.2-0.5 0.6-0.7 1.2 -0.2 0.5-0.3 1.3-0.4 2.1 -0.1 0.9-0.1 2-0.1 3.2 0 1.4 0 2.5 0.1 3.3 0.1 0.8 0.2 1.5 0.4 2 0.2 0.5 0.4 0.8 0.7 0.9s0.6 0.2 1 0.2c0.3 0 0.6-0.1 0.9-0.2 0.3-0.1 0.5-0.3 0.7-0.7 0.2-0.3 0.4-0.8 0.5-1.4 0.1-0.6 0.2-1.4 0.2-2.4h3.6c0 1-0.1 1.9-0.2 2.8 -0.1 0.9-0.4 1.6-0.8 2.3 -0.4 0.6-1 1.2-1.7 1.5C75.7 24.1 74.8 24.3 73.6 24.3z"/></svg>