<svg id="Layer_1" xmlns="http://www.w3.org/2000/svg" width="183.9" height="183.9" viewBox="0 0 183.9 183.9"><style>.st0{fill:#4183d7}.st1{fill:#111}</style><path class="st0" d="M31.6 115.4l7.2-13.6 7.9-3.8 17.2 4.3-9.2 17.8-25.9-.3zm121.1 0l-7.2-13.6-8-3.8-17.1 4.3 9.1 17.8 26-.3zm-33.1 2.4l-11.7-13.3-10.4-4.9-23.9 5.7-10.7 19.4L75 128h46z"/><ellipse class="st0" cx="92" cy="71.6" rx="15.2" ry="14.5"/><ellipse class="st0" cx="52" cy="74.8" rx="11.6" ry="11"/><ellipse class="st0" cx="132" cy="74.8" rx="11.6" ry="11"/><path class="st1" d="M132 89.5c8.1 0 14.7-6.6 14.7-14.7s-6.6-14.7-14.7-14.7-14.7 6.6-14.7 14.7 6.6 14.7 14.7 14.7zm0-23.5c4.9 0 8.8 4 8.8 8.8 0 4.9-4 8.8-8.8 8.8-4.9 0-8.8-4-8.8-8.8 0-4.9 3.9-8.8 8.8-8.8zm0 29.3c-4 0-7.9 1-11.4 2.9-1.4.8-2 2.5-1.2 4 .8 1.4 2.5 2 4 1.2 2.6-1.4 5.6-2.2 8.7-2.2 9.1 0 16.7 6.7 18.1 15.4H132c-1.6 0-2.9 1.3-2.9 2.9 0 1.6 1.3 2.9 2.9 2.9h21.3c1.6 0 2.9-1.3 2.9-2.9 0-13.3-10.9-24.2-24.2-24.2zm-79.8 21.3H33.8c1.4-8.7 9-15.4 18.1-15.4 3 0 6 .7 8.6 2.2 1.4.8 3.2.2 4-1.2.8-1.4.2-3.2-1.2-4-3.5-1.9-7.4-2.9-11.4-2.9-13.4 0-24.2 10.9-24.2 24.2 0 1.6 1.3 2.9 2.9 2.9h21.6c1.6 0 2.9-1.3 2.9-2.9.1-1.6-1.3-2.9-2.9-2.9zM52 89.5c8.1 0 14.7-6.6 14.7-14.7S60.1 60.1 52 60.1s-14.7 6.6-14.7 14.7S43.9 89.5 52 89.5zM52 66c4.9 0 8.8 4 8.8 8.8 0 4.9-4 8.8-8.8 8.8-4.9 0-8.8-4-8.8-8.8-.1-4.9 3.9-8.8 8.8-8.8zm40 24.5c10.4 0 18.9-8.5 18.9-18.9 0-10.4-8.5-18.9-18.9-18.9-10.4 0-18.9 8.5-18.9 18.9 0 10.4 8.4 18.9 18.9 18.9zm0-31.9c7.2 0 13 5.8 13 13s-5.8 13-13 13-13-5.8-13-13c-.1-7.2 5.8-13 13-13zm0 37.8c-17.6 0-31.9 14.3-31.9 31.9 0 1.6 1.3 2.9 2.9 2.9h57.9c1.6 0 2.9-1.3 2.9-2.9 0-17.6-14.3-31.9-31.8-31.9zm-25.9 28.9c1.5-13 12.5-23.1 25.8-23.1s24.4 10.1 25.8 23.1H66.1zm0 0"/><path class="st1" d="M181 89h-7.1c-1.5-42.9-36.1-77.4-79-79V2.9C94.9 1.3 93.6 0 92 0c-1.7 0-3 1.3-3 2.9V10c-42.9 1.5-77.4 36.1-79 79H2.9C1.3 89 0 90.3 0 92c0 1.6 1.3 2.9 2.9 2.9H10c1.5 42.9 36.1 77.4 79 79v7.1c0 1.6 1.3 2.9 2.9 2.9 1.6 0 2.9-1.3 2.9-2.9v-7.1c42.9-1.5 77.4-36.1 79-79h7.1c1.6 0 2.9-1.3 2.9-2.9.1-1.7-1.2-3-2.8-3zm-86.1 79v-7c0-1.6-1.3-2.9-2.9-2.9-1.6 0-2.9 1.3-2.9 2.9v7c-39.6-1.5-71.6-33.5-73.1-73.1h7c1.6 0 2.9-1.3 2.9-2.9 0-1.6-1.3-2.9-2.9-2.9h-7c1.4-39.7 33.4-71.7 73-73.2v7c0 1.6 1.3 2.9 2.9 2.9 1.6 0 2.9-1.3 2.9-2.9v-7c39.6 1.5 71.6 33.5 73.1 73.1h-7c-1.6 0-2.9 1.3-2.9 2.9 0 1.6 1.3 2.9 2.9 2.9h7c-1.4 39.7-33.4 71.7-73 73.2zm0 0"/></svg>