<svg id="Layer_1" xmlns="http://www.w3.org/2000/svg" viewBox="0 0 200 20"><style>.st0{fill:#ce2027}.st1{fill:#fff}</style><path class="st0" d="M88.9 1.1h11.5v18h-3.6v-15h-4.2v15h-3.7v-18zm17.6 0h4.5l4.8 18H112l-.8-3.8h-4.8l-.8 3.8h-3.8l4.7-18zm4 11.2l-1.7-8.1h-.1l-1.8 8.1h3.6zM117 1.1h6.4c.9 0 1.7.2 2.3.5s1.1.7 1.5 1.2.7 1.1.8 1.7c.2.6.3 1.3.3 2 0 .9-.1 1.8-.4 2.4-.3.7-.7 1.2-1.2 1.7-.5.4-1.1.8-1.8 1-.7.2-1.5.3-2.3.3h-2v7.2H117v-18zm5.2 8.1c.7 0 1.3-.2 1.8-.7.4-.4.7-1.1.7-2s-.2-1.6-.6-2.1-1-.7-1.9-.7h-1.6v5.5h1.6zM133 4.1h-3.9v-3h11.5v3h-3.9v15h-3.6v-15h-.1zm9.2-3h3.6V8h4.2V1.1h3.6v18H150v-8h-4.2v8h-3.6v-18zm14 0h10.1v3h-6.5v4.2h6.1v3h-6.1v4.8h6.7v3h-10.3v-18zm12.1 0h6.4c.9 0 1.7.2 2.3.5.6.3 1.1.7 1.5 1.2.4.5.7 1.1.8 1.7.2.6.3 1.3.3 2 0 .9-.1 1.8-.4 2.4-.3.7-.7 1.2-1.2 1.7-.5.4-1.1.8-1.8 1-.7.2-1.5.3-2.3.3H172v7.2h-3.7v-18zm5.3 8.1c.7 0 1.3-.2 1.8-.7.4-.4.7-1.1.7-2s-.2-1.6-.6-2.1c-.4-.5-1-.7-1.9-.7h-1.5v5.5h1.5zm7.8-8.1h3.6v6.8h1.9c.9 0 1.7.1 2.5.3.7.2 1.3.5 1.8.9s.9 1 1.1 1.7c.3.7.4 1.6.4 2.6s-.1 1.9-.4 2.6c-.3.7-.6 1.3-1.1 1.8s-1.1.8-1.8 1-1.5.3-2.4.3h-5.6v-18zm4.7 15.2c1.1 0 1.9-.2 2.3-.6.4-.4.7-1.2.7-2.3 0-.6-.1-1-.2-1.4-.1-.4-.3-.6-.5-.9-.2-.2-.5-.4-.9-.4-.4-.1-.8-.1-1.2-.1h-1.2v5.7h1zm8.1-15.2h3.6v18h-3.6v-18z"/><path class="st1" d="M1.3 1h10.5v3H5v4h2.2c.9 0 1.7.1 2.4.3s1.3.5 1.8.9.9 1 1.1 1.7c.3.7.4 1.6.4 2.6s-.1 1.9-.4 2.6c-.3.7-.7 1.3-1.2 1.8s-1.2.8-1.9 1-1.6.3-2.5.3H1.3V1zm4.9 15.2c.5 0 1 0 1.3-.1.4-.1.7-.2.9-.5.2-.2.4-.5.5-.9.1-.4.2-.8.2-1.4 0-1-.2-1.7-.7-2.1s-1.2-.5-2.2-.5H5v5.5h1.2zm9-15.2h3.5v11.5L23.1.9H27v18h-3.5V7.5L19.1 19h-3.9V1zm19.3 18.3c-1.1 0-2-.1-2.7-.3-.7-.2-1.3-.6-1.8-1-.5-.5-.8-1-1-1.8-.2-.7-.3-1.5-.3-2.5v-.2h3.6v.2c0 .4 0 .8.1 1.1.1.4.2.7.3 1 .2.3.4.5.7.7.3.2.7.3 1.2.3.8 0 1.3-.2 1.7-.7.4-.4.6-1.2.6-2.1 0-1-.2-1.8-.6-2.2-.4-.4-1.1-.6-2-.6h-1.1V8.4h.6c1 0 1.7-.2 2.1-.7.4-.4.6-1.2.6-2.2 0-.8-.2-1.3-.5-1.7-.2-.3-.7-.5-1.2-.5-.6 0-1 .1-1.4.4-.4.2-.6.6-.7 1.2 0 .2-.1.3-.1.5v.5H29v-.2c0-1.7.5-3 1.5-3.8S32.9.6 34.8.6c1.7 0 3.1.4 4 1.2s1.4 2 1.4 3.5c0 .4-.1.9-.2 1.3s-.3.8-.5 1.2-.5.7-.8 1-.7.5-1.2.6c1 .2 1.8.7 2.3 1.4.6.7.8 1.6.8 2.8 0 1.9-.5 3.3-1.6 4.3-1 .9-2.5 1.4-4.5 1.4zM43 1h3.6v6.9h4.2V1h3.6v18h-3.6v-8h-4.2v8H43V1zm14 0h10.1v3h-6.4v4.2h6.1v3h-6.1V16h6.7v3H57V1zm17.9 18.3c-1.4 0-2.4-.2-3.3-.7s-1.4-1.1-1.9-1.9c-.4-.8-.7-1.8-.8-2.9-.1-1.1-.2-2.4-.2-3.8s.1-2.6.2-3.8.4-2.1.8-3c.4-.8 1-1.5 1.9-1.9.8-.5 1.9-.7 3.3-.7 1.3 0 2.3.2 3.1.6.8.4 1.3 1 1.7 1.6.4.6.6 1.3.7 2.1.1.7.1 1.5.1 2.1h-3.6c0-1.3-.2-2.3-.5-2.9-.3-.6-.9-.9-1.7-.9-.5 0-.8.1-1.1.4-.3.2-.5.6-.7 1.2-.2.5-.3 1.3-.4 2.1-.1.9-.1 2-.1 3.2 0 1.4 0 2.5.1 3.3s.2 1.5.4 2 .4.8.7.9.6.2 1 .2c.3 0 .6-.1.9-.2s.5-.3.7-.7c.2-.3.4-.8.5-1.4s.2-1.4.2-2.4h3.6c0 1-.1 1.9-.2 2.8s-.4 1.6-.8 2.3c-.4.6-1 1.2-1.7 1.5-.8.7-1.7.9-2.9.9z"/></svg>