<svg id="Layer_1" xmlns="http://www.w3.org/2000/svg" width="577" height="97" viewBox="0 0 577 97"><style>.st0{fill:#fffb28}</style><path class="st0" d="M0 81.2L8.4.9h46.2l-8.4 80.3H32l7.4-70.1H21.6l-7.4 70.1H0zm58.3 0L66.7.9h22.7c7.1 0 12.1 1.9 15 5.8 2.3 3 3.4 7.2 3.4 12.3 0 1.5-.1 3-.2 4.6-.8 7.4-3.2 12.8-7.3 16.2-4.1 3.5-9.5 5.2-16.2 5.2h-7.6l-3.8 36.1-14.4.1zm19.1-46.1H82c4.2 0 7.2-.8 8.8-2.4 1.7-1.6 2.7-4.6 3.2-9 .2-1.8.3-3.4.3-4.8 0-1 0-1.8-.1-2.5-.3-1.9-1.1-3.2-2.6-4-1.5-.8-3.8-1.2-7-1.2H80l-2.6 23.9zm53.3 47.1c-4.2 0-7.7-.6-10.6-1.8s-5.1-3-6.6-5.3-2.5-5.1-3-8.3c-.3-1.6-.4-3.4-.4-5.3 0-1.8.1-3.7.3-5.8l3.1-29.7c.9-8.6 3.3-15.1 7.4-19.5 4-4.4 10.2-6.6 18.4-6.6s13.9 2.2 17 6.6c2.4 3.4 3.6 8.1 3.6 14 0 1.7-.1 3.5-.3 5.4l-3.1 29.7c-.9 8.6-3.4 15.1-7.5 19.7-4 4.6-10.1 6.9-18.3 6.9zm1.1-10.7c1.5 0 2.7-.2 3.8-.7 1.1-.4 2-1 2.7-1.7.7-.7 1.3-1.6 1.7-2.7.5-1.1.8-2.3 1.1-3.4.2-1.1.4-2.5.6-4.1l3.8-36.2c.1-1.5.2-2.8.2-4 0-.8 0-1.6-.1-2.3-.1-1.8-.8-3.2-2-4.3-1.2-1-3-1.6-5.3-1.6-1.8 0-3.3.3-4.6.8-1.2.6-2.2 1.4-2.9 2.6s-1.2 2.5-1.6 3.8c-.3 1.3-.6 3-.8 4.9L124.7 59c-.1 1.6-.2 3-.2 4.3v2.1c.1 1.9.8 3.4 2 4.5s3 1.6 5.3 1.6zm32.9 9.7L173.1.9h19.6c3.7 0 6.9.3 9.6 1 2.7.7 5 1.8 6.9 3.3 2 1.5 3.4 3.6 4.2 6.3.5 1.8.8 3.8.8 6 0 1.2-.1 2.5-.2 3.8-1.1 10-5.6 15.6-13.6 16.7 4.6 1 7.9 3.1 9.9 6.3 1.5 2.5 2.3 5.7 2.3 9.7 0 1.2-.1 2.5-.2 3.9-.7 7.6-3.2 13.3-7.5 17.3-4.2 4-10 6-17.3 6h-22.9zm15.4-10.1h5.5c3 0 5.5-.5 7.3-1.5 1.8-1 3.1-2.4 4-4.2.9-1.9 1.5-4.4 1.8-7.5.1-1.1.1-2.1.1-3.1 0-3.3-.6-5.8-1.9-7.6-1.7-2.2-4.8-3.3-9.3-3.3H183l-2.9 27.2zm4-37.3h4.6c4.4 0 7.5-.9 9.3-2.8 1.8-1.9 3-5 3.4-9.4.1-.9.1-1.7.1-2.4 0-1.3-.1-2.3-.4-3.2-.4-1.4-1.2-2.5-2.4-3.2-1.2-.7-2.6-1.2-4.1-1.4-1.5-.2-3.6-.3-6.2-.3h-2l-2.3 22.7zM241 82.2c-4.2 0-7.7-.6-10.6-1.8s-5.1-3-6.6-5.3-2.5-5.1-3-8.3c-.3-1.6-.4-3.4-.4-5.3 0-1.8.1-3.7.3-5.8l3.1-29.7c.9-8.6 3.3-15.1 7.4-19.5 4-4.4 10.2-6.6 18.4-6.6s13.9 2.2 17 6.6c2.4 3.4 3.6 8.1 3.6 14 0 1.7-.1 3.5-.3 5.4l-3.1 29.7c-.9 8.6-3.4 15.1-7.5 19.7-4 4.6-10.2 6.9-18.3 6.9zm1.1-10.7c1.5 0 2.7-.2 3.8-.7 1.1-.4 2-1 2.7-1.7.7-.7 1.3-1.6 1.7-2.7.5-1.1.8-2.3 1.1-3.4.2-1.1.4-2.5.6-4.1l3.8-36.2c.1-1.5.2-2.8.2-4 0-.8 0-1.6-.1-2.3-.1-1.8-.8-3.2-2-4.3-1.2-1-3-1.6-5.3-1.6-1.8 0-3.3.3-4.6.8-1.2.6-2.2 1.4-2.9 2.6s-1.2 2.5-1.6 3.8c-.3 1.3-.6 3-.8 4.9L235 59c-.1 1.6-.2 3-.2 4.3v2.1c.1 1.9.8 3.4 2 4.5s2.9 1.6 5.3 1.6zm32.9 9.7L283.4.9h14.3l-3.5 34h3l16.6-34H328l-19 37.9 12 42.4h-14.5l-10.2-37.6h-3l-4 37.6H275zm48.9 0L348.7.9h14.8l8 80.3h-13.4l-1.4-18.8h-14.1l-5.3 18.8h-13.4zM345.3 53h11l-2-33.2-9 33.2zm78.1 44l.1-15.8h-44.1L387.8.9h14.3l-7.4 70.4h18.6L420.7.9H435l-7.4 70.4h9.1L434.2 97h-10.8zm20.8-15.8L452.6.9h12l-5.3 50.6L486.5.9h9.8l-8.4 80.3h-12.1l5.4-51.6-27.4 51.6h-9.6zm50.9 0l20-35.9c-3.2-1.8-5.6-4.5-7.3-8.2-1.2-2.7-1.8-5.9-1.8-9.5 0-1.2.1-2.5.2-3.8.8-7.7 3.5-13.5 8.2-17.2C519 2.8 525.9.9 535 .9h17.8l-8.4 80.3h-14.3l3.4-32.6h-6.3l-16.5 32.6h-15.6zm36.8-42.7h2.7l2.9-27.6h-3c-4.6 0-8.1 1-10.5 3.1-2.5 2.1-3.9 5.3-4.4 9.8-.1 1.1-.1 2.1-.1 3.1 0 3.4.7 6.1 2.1 7.9 1.9 2.5 5.3 3.7 10.3 3.7zm23.3 42.7l1.4-12.9h12.9l-1.4 12.9h-12.9zm6.1-18.4L563.7 1H577l-11 61.8h-4.7z"/></svg>