<svg xmlns="http://www.w3.org/2000/svg" width="756" height="104.613" viewBox="0 0 756 104.613"><path d="M9.165 88.826l8.426-80.291h46.198l-8.426 80.291H41.175l7.409-70.073H30.763l-7.409 70.073H9.165zm58.257 0l8.426-80.291H98.56c7.07 0 12.059 1.938 14.964 5.812 2.292 3.035 3.422 7.151 3.39 12.349 0 1.453-.081 2.986-.242 4.601-.774 7.361-3.204 12.777-7.288 16.247-4.084 3.471-9.5 5.206-16.247 5.206h-7.603l-3.777 36.078H67.422zm19.176-46.15h4.601c4.229 0 7.174-.815 8.837-2.445 1.663-1.63 2.72-4.641 3.172-9.032.226-1.808.34-3.421.34-4.842 0-.969-.049-1.808-.146-2.519-.259-1.872-1.114-3.204-2.566-3.995-1.453-.791-3.794-1.187-7.022-1.187h-4.697l-2.519 24.02zm53.269 47.119c-4.197 0-7.724-.598-10.581-1.792s-5.053-2.961-6.586-5.303c-1.534-2.34-2.542-5.092-3.026-8.257-.259-1.646-.388-3.421-.388-5.327 0-1.808.112-3.729.339-5.763l3.147-29.686c.872-8.587 3.325-15.076 7.361-19.467 4.035-4.39 10.169-6.586 18.401-6.586s13.898 2.212 16.998 6.634c2.421 3.422 3.615 8.087 3.584 13.996 0 1.711-.098 3.519-.291 5.423l-3.147 29.686c-.904 8.588-3.39 15.142-7.458 19.661-4.067 4.521-10.186 6.781-18.353 6.781zm1.114-10.654c1.452 0 2.728-.218 3.825-.654 1.098-.436 1.985-.993 2.663-1.671.679-.678 1.251-1.582 1.72-2.712a19.503 19.503 0 0 0 1.065-3.39c.242-1.13.443-2.486.605-4.068l3.777-36.223c.128-1.453.193-2.792.193-4.019a26.7 26.7 0 0 0-.097-2.325c-.13-1.808-.792-3.236-1.985-4.286-1.195-1.049-2.971-1.574-5.327-1.574-1.809 0-3.325.283-4.552.847-1.228.565-2.188 1.445-2.882 2.64a14.808 14.808 0 0 0-1.55 3.777c-.339 1.324-.605 2.971-.799 4.939l-3.777 36.223a51.696 51.696 0 0 0-.193 4.261c0 .711.016 1.421.048 2.131.129 1.873.782 3.358 1.962 4.456 1.179 1.099 2.947 1.648 5.304 1.648zm32.929 9.685l8.427-80.291H201.9c3.713 0 6.909.339 9.589 1.017 2.68.678 4.988 1.792 6.925 3.341 2.002 1.485 3.39 3.583 4.165 6.295.516 1.776.774 3.777.774 6.005 0 1.195-.081 2.454-.242 3.777-1.13 10.008-5.649 15.562-13.56 16.659 4.617.969 7.926 3.067 9.928 6.295 1.518 2.486 2.276 5.731 2.276 9.734a42.48 42.48 0 0 1-.194 3.922c-.742 7.555-3.229 13.317-7.457 17.288-4.229 3.971-9.992 5.957-17.288 5.957H173.91zm15.399-10.121h5.521c3.034 0 5.455-.484 7.264-1.453a9.06 9.06 0 0 0 4.02-4.237c.871-1.856 1.469-4.366 1.791-7.53.098-1.097.146-2.131.146-3.1 0-3.293-.646-5.811-1.937-7.554-1.68-2.195-4.763-3.309-9.25-3.342h-4.745l-2.81 27.216zm3.923-37.337h4.649c4.358 0 7.457-.936 9.298-2.809 1.84-1.872 2.985-5.02 3.438-9.443a21.4 21.4 0 0 0 .146-2.373c0-1.259-.129-2.34-.388-3.245-.387-1.42-1.194-2.485-2.421-3.196-1.228-.709-2.599-1.169-4.116-1.38-1.518-.209-3.601-.315-6.247-.315h-1.985l-2.374 22.761zm56.902 48.427c-4.197 0-7.724-.598-10.581-1.792s-5.053-2.961-6.586-5.303c-1.534-2.34-2.542-5.092-3.026-8.257-.259-1.646-.388-3.421-.388-5.327 0-1.808.112-3.729.339-5.763l3.147-29.686c.872-8.587 3.325-15.076 7.361-19.467 4.035-4.39 10.169-6.586 18.401-6.586s13.898 2.212 16.998 6.634c2.421 3.422 3.615 8.087 3.584 13.996 0 1.711-.098 3.519-.291 5.423l-3.147 29.686c-.904 8.588-3.39 15.142-7.458 19.661-4.067 4.521-10.186 6.781-18.353 6.781zm1.114-10.654c1.452 0 2.728-.218 3.825-.654 1.098-.436 1.985-.993 2.663-1.671.679-.678 1.251-1.582 1.72-2.712a19.503 19.503 0 0 0 1.065-3.39c.242-1.13.443-2.486.605-4.068l3.777-36.223c.128-1.453.193-2.792.193-4.019a26.7 26.7 0 0 0-.097-2.325c-.13-1.808-.792-3.236-1.985-4.286-1.195-1.049-2.971-1.574-5.327-1.574-1.809 0-3.325.283-4.552.847-1.228.565-2.188 1.445-2.882 2.64a14.808 14.808 0 0 0-1.55 3.777c-.339 1.324-.605 2.971-.799 4.939l-3.777 36.223a51.696 51.696 0 0 0-.193 4.261c0 .711.016 1.421.048 2.131.129 1.873.782 3.358 1.962 4.456 1.179 1.099 2.946 1.648 5.304 1.648zm32.929 9.685l8.427-80.291h14.285l-3.535 33.996h3.003l16.61-33.996h14.188l-19.031 37.87 11.961 42.421h-14.479l-10.169-37.579h-3.003l-3.971 37.579h-14.286zm48.911 0l24.843-80.291h14.77l7.99 80.291h-13.365l-1.355-18.79h-14.093l-5.326 18.79h-13.464zm21.355-28.232h10.993l-2.034-33.172-8.959 33.172zm78.161 44.019l.145-15.787h-44.116l8.427-80.291h14.285l-7.36 70.364h18.644l7.41-70.364h14.285l-7.36 70.364h9.104l-2.712 25.714h-10.752zm20.775-15.787l8.427-80.291h11.961l-5.278 50.605 27.216-50.605h9.782l-8.427 80.291h-12.058l5.424-51.623-27.41 51.623h-9.637zm50.896 0l20.048-35.884c-3.229-1.775-5.649-4.504-7.264-8.184-1.228-2.744-1.84-5.908-1.84-9.492 0-1.227.063-2.501.193-3.826.807-7.715 3.535-13.462 8.184-17.24 4.649-3.777 11.525-5.666 20.63-5.666h17.821l-8.427 80.291h-14.334l3.438-32.591h-6.296l-16.465 32.591h-15.688zm36.804-42.712h2.712l2.905-27.555h-3.002c-4.553 0-8.056 1.041-10.509 3.124-2.454 2.083-3.907 5.335-4.358 9.758a33.708 33.708 0 0 0-.146 3.051c0 3.422.71 6.07 2.131 7.942 1.872 2.454 5.294 3.68 10.267 3.68zm23.292 42.712l1.356-12.881h12.93l-1.355 12.881h-12.931zm6.103-18.402l2.421-61.792h13.221l-10.993 61.792h-4.649z" fill="#FFFB28"/><path fill="#FFF" d="M606.163 27.857c-.491 0-.925-.05-1.301-.149a3.116 3.116 0 0 1-.948-.402c-.255-.17-.465-.389-.631-.657s-.292-.547-.375-.835a4.624 4.624 0 0 1-.158-1.03 9.555 9.555 0 0 1 0-1.148c.023-.367.06-.791.111-1.272l.396-3.292c.236-2.099.686-3.571 1.348-4.415.662-.844 1.742-1.267 3.242-1.267.78 0 1.418.116 1.913.35.496.233.844.552 1.046.958.202.407.328.886.381 1.439a7.333 7.333 0 0 1-.066 1.787l-.066.568H609.7l.066-.556c.132-.924.132-1.652 0-2.185-.131-.532-.354-.897-.664-1.095-.312-.197-.765-.295-1.361-.295-.431 0-.796.055-1.1.166-.302.111-.56.27-.775.48-.215.209-.397.505-.546.887-.15.383-.27.807-.362 1.273s-.178 1.05-.257 1.752l-.434 3.634c-.184 1.594-.141 2.715.131 3.363.273.647.904.97 1.894.97 1.001 0 1.689-.288 2.065-.864.378-.576.654-1.606.83-3.09l.052-.545h1.355l-.052.521a15.656 15.656 0 0 1-.25 1.604 6.864 6.864 0 0 1-.454 1.338c-.207.454-.459.815-.757 1.083-.297.268-.693.489-1.184.663-.489.174-1.067.261-1.734.261zm11.403-.225l1.524-13.022h-3.643l.118-.994h8.603l-.118.994h-3.539l-1.513 13.022h-1.432zm8.401 3.54l.131-1.089c.659-.008 1.226-.071 1.703-.189.478-.119.846-.284 1.104-.497.26-.213.463-.466.612-.758.149-.291.224-.61.224-.953 0-.343-.023-.708-.066-1.095l-1.907-12.975h1.393l.948 7.411.631 5.09 1.71-5.019 2.577-7.482h1.395l-5.406 14.679a5.097 5.097 0 0 1-.612 1.184 3.746 3.746 0 0 1-.749.794 3.144 3.144 0 0 1-1 .491c-.4.123-.799.212-1.198.266-.397.055-.894.102-1.49.142zm11.508-.285l.486-4.155a4.08 4.08 0 0 0 1.592-1.314c.43-.584.84-1.484 1.229-2.699.391-1.216.783-2.865 1.179-4.948l.841-4.155h6.17l-1.526 13.081h1.393l-.501 4.19h-1.13l.25-3.255h-8.353l-.501 3.255h-1.129zm2.091-4.19h6.485l1.408-12.099h-3.578l-.749 3.409c-.554 2.944-1.066 5.007-1.54 6.191-.475 1.185-1.149 2.017-2.026 2.499zm14.387.935l1.631-14.016h1.25l-1.355 11.625 6.84-11.614 1.197-.011-1.631 14.016h-1.224l1.342-11.518-6.827 11.518h-1.223zm12.665 0l3.867-6.144c-.781-.3-1.305-.801-1.573-1.503-.268-.702-.354-1.476-.257-2.32.053-.442.129-.836.231-1.184.1-.347.276-.708.526-1.083.249-.375.559-.685.927-.929.368-.245.864-.448 1.485-.61.623-.161 1.342-.242 2.157-.242h2.592l-1.631 14.016h-1.421l.672-5.753c-1.229 0-2.039-.031-2.433-.095l-3.604 5.848h-1.538zm6.733-6.629h.935l.762-6.523h-1.209c-.597 0-1.119.059-1.566.178-.447.119-.801.27-1.064.456a2.338 2.338 0 0 0-.659.716c-.174.292-.3.578-.375.858-.074.28-.134.61-.178.988-.131 1.153.061 1.995.58 2.528.517.533 1.442.799 2.774.799zM603.65 55.636l1.631-14.016h1.25l-1.355 11.625 6.84-11.614 1.196-.011-1.631 14.016h-1.224l1.342-11.518-6.827 11.518h-1.222zm13.665 0l1.631-14.016h1.434l-.723 6.238h5.577l.723-6.238h1.434l-1.631 14.016h-1.434l.788-6.795h-5.577l-.788 6.795h-1.434zm16.414 0l1.524-13.022h-3.643l.118-.994h8.603l-.118.994h-3.539l-1.513 13.022h-1.432zm12.78.225c-.43 0-.809-.034-1.137-.101a3.396 3.396 0 0 1-.935-.337 1.945 1.945 0 0 1-.71-.639 3.96 3.96 0 0 1-.46-1.006c-.128-.403-.191-.878-.191-1.427 0-.548.031-1.182.092-1.9l.434-3.741c.105-.86.257-1.606.454-2.237s.428-1.142.691-1.533a3.18 3.18 0 0 1 .953-.936 3.678 3.678 0 0 1 1.151-.48c.396-.086.856-.13 1.381-.13 1.431 0 2.375.421 2.835 1.261.46.84.572 2.278.336 4.315l-.184 1.337h-6.367l-.263 2.238c-.149 1.105-.163 1.979-.039 2.622.123.643.344 1.091.664 1.343s.786.379 1.4.379c.263 0 .496-.015.698-.047a2.6 2.6 0 0 0 .678-.22c.25-.114.462-.272.638-.473.174-.202.336-.489.48-.865a5.53 5.53 0 0 0 .31-1.343l.118-1.041h1.408l-.12.923c-.149 1.295-.557 2.291-1.222 2.99-.668.699-1.698 1.048-3.093 1.048zm-1.565-8.323h4.984l.12-1.089c.087-.844.124-1.569.111-2.172-.013-.604-.184-1.074-.513-1.409-.328-.336-.84-.503-1.532-.503-.623 0-1.122.108-1.5.325-.376.217-.696.627-.959 1.231-.263.604-.46 1.454-.593 2.551l-.118 1.066zm10.31 12.715l2.17-18.633h1.434l-.131 1.196c.903-.947 1.951-1.421 3.144-1.421.928 0 1.632.241 2.11.723.478.481.749 1.15.815 2.006.066.857.037 1.876-.086 3.06l-.315 2.688c-.237 2.052-.685 3.564-1.342 4.534-.659.97-1.663 1.456-3.013 1.456-1.069 0-1.963-.462-2.684-1.385l-.67 5.777h-1.432zm4.736-5.398c.938 0 1.615-.375 2.031-1.125.417-.749.73-2.024.941-3.824l.315-2.734c.141-1.105.191-2.01.152-2.717-.04-.706-.213-1.226-.52-1.557-.307-.331-.79-.497-1.447-.497-.93 0-1.876.434-2.842 1.301l-1.156 9.885c.675.845 1.517 1.268 2.526 1.268zm9.244.781l1.631-14.016h1.434l-.723 6.238h5.577l.723-6.238h1.434l-1.631 14.016h-1.434l.788-6.795h-5.577l-.788 6.795h-1.434zm17.833.225c-.43 0-.809-.034-1.137-.101a3.396 3.396 0 0 1-.935-.337 1.945 1.945 0 0 1-.71-.639 3.96 3.96 0 0 1-.46-1.006c-.128-.403-.191-.878-.191-1.427 0-.548.031-1.182.092-1.9l.434-3.741c.105-.86.257-1.606.454-2.237s.428-1.142.691-1.533a3.18 3.18 0 0 1 .953-.936 3.678 3.678 0 0 1 1.151-.48c.396-.086.856-.13 1.381-.13 1.431 0 2.375.421 2.835 1.261s.572 2.278.336 4.315l-.184 1.337h-6.367l-.263 2.238c-.149 1.105-.163 1.979-.039 2.622.123.643.344 1.091.664 1.343s.786.379 1.4.379c.263 0 .496-.015.698-.047s.428-.105.678-.22c.25-.114.462-.272.638-.473.174-.202.336-.489.48-.865a5.53 5.53 0 0 0 .31-1.343l.118-1.041h1.408l-.12.923c-.149 1.295-.557 2.291-1.222 2.99-.668.699-1.698 1.048-3.093 1.048zm-1.565-8.323h4.984l.12-1.089c.087-.844.124-1.569.111-2.172-.013-.604-.184-1.074-.513-1.409-.328-.336-.84-.503-1.532-.503-.623 0-1.122.108-1.5.325-.376.217-.696.627-.959 1.231-.263.604-.46 1.454-.593 2.551l-.118 1.066zm12.916 8.098l1.524-13.022h-3.643l.118-.994h8.603l-.118.994h-3.539l-1.513 13.022h-1.432zm9.715-7.73l.12-1.066h5.564l-.12 1.066h-5.564zM603.985 84.605l1.763-14.016h1.104l2.553 10.252 4.931-10.252h1.158l-1.513 14.016h-1.248l1.196-10.738-4.552 9.258h-.46l-2.367-9.222-1.316 10.702h-1.249zm18.215.226c-.94 0-1.66-.284-2.164-.853-.505-.568-.709-1.306-.612-2.214.079-.623.218-1.142.42-1.557.202-.415.575-.835 1.119-1.261s1.226-.836 2.046-1.231c.819-.395 1.962-.884 3.426-1.468l.118-1.007c.14-1.002.161-1.791.066-2.367-.097-.576-.281-.974-.552-1.196-.273-.221-.68-.332-1.224-.332-.342 0-.651.036-.927.107s-.551.195-.822.373c-.273.178-.499.45-.678.817-.179.367-.3.815-.362 1.343l-.053.391-1.381-.023c0-.016.006-.079.019-.19s.021-.174.021-.19c.192-1.278.647-2.199 1.368-2.764.719-.564 1.713-.847 2.986-.847 1.298 0 2.169.367 2.611 1.101s.564 1.949.362 3.646l-.828 7.055c-.141 1.381-.207 2.194-.197 2.439h-1.224c-.01-1.058-.013-1.677-.013-1.858-.334.608-.815 1.107-1.447 1.498s-1.324.588-2.078.588zm.473-1.066c.622 0 1.201-.186 1.736-.556.534-.371.991-.84 1.368-1.409l.539-4.617c-1.876.836-3.065 1.397-3.564 1.681-.79.466-1.311.975-1.566 1.527-.157.324-.263.722-.315 1.196-.087.757.048 1.31.407 1.657.36.347.825.521 1.395.521zm9.324 5.458l2.17-18.633h1.434l-.131 1.196c.903-.947 1.951-1.421 3.144-1.421.928 0 1.632.241 2.11.723.478.481.749 1.15.815 2.006.066.857.037 1.876-.086 3.06l-.315 2.688c-.237 2.052-.685 3.564-1.342 4.534-.659.97-1.663 1.456-3.013 1.456-1.069 0-1.963-.462-2.684-1.385l-.67 5.777h-1.432zm4.735-5.399c.938 0 1.615-.375 2.031-1.125.417-.749.73-2.024.941-3.824l.315-2.734c.141-1.105.191-2.01.152-2.717-.04-.706-.213-1.226-.52-1.557-.307-.331-.79-.497-1.447-.497-.93 0-1.876.434-2.842 1.301l-1.156 9.885c.676.846 1.517 1.268 2.526 1.268zm9.244.781l1.631-14.016h1.434l-.723 6.321h1.301l4.618-6.321h1.498l-4.867 6.759 3.407 7.257h-1.5l-3.262-6.842h-1.301l-.802 6.842h-1.434zm16.373.226c-.43 0-.809-.034-1.137-.101a3.396 3.396 0 0 1-.935-.337 1.945 1.945 0 0 1-.71-.639 3.96 3.96 0 0 1-.46-1.006c-.128-.403-.191-.878-.191-1.427 0-.548.031-1.182.092-1.9l.434-3.741c.105-.86.257-1.606.454-2.237s.428-1.142.691-1.533.58-.702.953-.936a3.678 3.678 0 0 1 1.151-.48c.396-.086.856-.13 1.381-.13 1.431 0 2.375.421 2.835 1.261.46.84.572 2.278.336 4.315l-.184 1.337h-6.367l-.263 2.238c-.148 1.105-.163 1.979-.039 2.622.123.643.344 1.091.664 1.343.32.253.786.379 1.4.379.263 0 .496-.015.698-.047a2.6 2.6 0 0 0 .678-.22c.25-.114.462-.272.638-.473.174-.202.336-.489.48-.865a5.53 5.53 0 0 0 .31-1.343l.118-1.041h1.408l-.12.923c-.149 1.295-.557 2.291-1.222 2.99-.667.698-1.698 1.048-3.093 1.048zm-1.564-8.323h4.984l.12-1.089c.087-.844.124-1.569.111-2.172-.013-.604-.184-1.074-.513-1.409-.328-.336-.84-.503-1.532-.503-.623 0-1.122.108-1.5.325-.376.217-.696.627-.959 1.231-.263.604-.46 1.454-.593 2.551l-.118 1.066zm12.914 8.097l1.524-13.022h-3.643l.118-.994h8.603l-.118.994h-3.539l-1.513 13.022h-1.432zm9.297 0l1.631-14.016h1.25l-1.355 11.625 6.84-11.614 1.196-.011-1.631 14.016h-1.224l1.342-11.518-6.827 11.518h-1.222zm13.664 0l1.631-14.016h1.434l-.723 6.238h5.577l.723-6.238h1.434l-1.631 14.016h-1.434l.788-6.795h-5.577l-.788 6.795h-1.434zm14.177 0l1.631-14.016h5.445l-.118 1.018h-4.012l-1.511 12.998h-1.435zm12.533.226c-.94 0-1.66-.284-2.164-.853-.505-.568-.709-1.306-.612-2.214.079-.623.218-1.142.42-1.557.202-.415.575-.835 1.119-1.261.544-.426 1.226-.836 2.046-1.231.819-.395 1.962-.884 3.426-1.468l.118-1.007c.141-1.002.161-1.791.066-2.367-.097-.576-.281-.974-.552-1.196-.273-.221-.68-.332-1.224-.332-.342 0-.651.036-.927.107a2.745 2.745 0 0 0-.822.373c-.273.178-.499.45-.678.817-.179.367-.3.815-.362 1.343l-.053.391-1.381-.023c0-.016.006-.079.019-.19s.021-.174.021-.19c.192-1.278.648-2.199 1.368-2.764.719-.564 1.713-.847 2.986-.847 1.298 0 2.169.367 2.611 1.101.442.734.563 1.949.362 3.646l-.828 7.055c-.141 1.381-.207 2.194-.197 2.439h-1.224c-.01-1.058-.013-1.677-.013-1.858a4.028 4.028 0 0 1-1.447 1.498 3.865 3.865 0 0 1-2.078.588zm.473-1.066c.622 0 1.201-.186 1.736-.556.534-.371.991-.84 1.368-1.409l.539-4.617c-1.876.836-3.065 1.397-3.564 1.681-.79.466-1.311.975-1.566 1.527-.157.324-.263.722-.315 1.196-.087.757.048 1.31.407 1.657.36.347.825.521 1.395.521z"/></svg>