<svg id="Layer_1" xmlns="http://www.w3.org/2000/svg" width="183.9" height="193.8" viewBox="0 0 183.9 193.8"><style>.st0{fill:#4183d7}.st1{fill:#111}.st2{fill:none;stroke:#111;stroke-width:6;stroke-linecap:round;stroke-miterlimit:10}</style><path class="st0" d="M16.7 112l7.4-13.9 8.1-3.8 15.6 4.5 1.9 1v16.7H13.9zm151.3-1l-7.4-13.9-8.1-3.8-15.5 4.5-1.9 1v16.7h35.8zm-55.5 48.2l-7.4-13.8-8.1-3.9-15.5 4.5-11.4 15.1 9.4 2.6h35.8z"/><ellipse class="st0" cx="36" cy="71.5" rx="11.8" ry="11.3"/><ellipse class="st0" cx="92.7" cy="118.5" rx="11.8" ry="11.3"/><ellipse class="st0" cx="148" cy="71.5" rx="11.8" ry="11.3"/><path class="st1" d="M6.3 131h19.9l7.1 14.3c.5 1 1.5 1.6 2.6 1.6s2.1-.6 2.6-1.6l7.1-14.3h1.5c1.6 0 2.9-1.3 2.9-2.9 0-1.6-1.3-2.9-2.9-2.9h-3.3c-1.1 0-2.1.6-2.6 1.6L36 137.4l-5.3-10.7c-.5-1-1.5-1.6-2.6-1.6H6.3c-.2 0-.4-.2-.4-.4V51.4c0-.2.2-.4.4-.4h59.3c.2 0 .4.2.4.4v31.8c0 1.6 1.3 2.9 2.9 2.9 1.6 0 2.9-1.3 2.9-2.9V51.4c0-3.5-2.8-6.3-6.3-6.3H6.3C2.8 45.1 0 48 0 51.4v73.3c0 3.5 2.8 6.3 6.3 6.3zm0 0"/><path class="st1" d="M36 56.9c-8.1 0-14.7 6.6-14.7 14.7S27.9 86.3 36 86.3s14.7-6.6 14.7-14.7c-.1-8.1-6.6-14.7-14.7-14.7zm0 23.5c-4.9 0-8.8-4-8.8-8.8 0-4.9 4-8.8 8.8-8.8 4.9 0 8.8 4 8.8 8.8 0 4.8-4 8.8-8.8 8.8zM36 98c3.5 0 6.8 1 9.7 2.8 1.4.9 3.2.4 4-.9.9-1.4.4-3.2-.9-4-3.8-2.4-8.3-3.7-12.8-3.7-13.4 0-24.2 10.9-24.2 24.2 0 1.6 1.3 2.9 2.9 2.9h32.5c1.6 0 2.9-1.3 2.9-2.9 0-1.6-1.3-2.9-2.9-2.9H17.8c1.5-8.8 9-15.5 18.2-15.5zm141.6-52.9h-59.3c-3.5 0-6.3 2.8-6.3 6.3v31.8c0 1.6 1.3 2.9 2.9 2.9 1.6 0 2.9-1.3 2.9-2.9V51.4c0-.2.2-.4.4-.4h59.3c.2 0 .4.2.4.4v73.3c0 .2-.2.4-.4.4h-21.7c-1.1 0-2.1.6-2.6 1.6l-5.3 10.7-5.3-10.7c-.5-1-1.5-1.6-2.6-1.6h-3.3c-1.6 0-2.9 1.3-2.9 2.9 0 1.6 1.3 2.9 2.9 2.9h1.5l7.1 14.3c.5 1 1.5 1.6 2.6 1.6s2.1-.6 2.6-1.6l7.1-14.3h19.9c3.5 0 6.3-2.8 6.3-6.3V51.4c.1-3.4-2.7-6.3-6.2-6.3zm0 0"/><path class="st1" d="M148 56.9c-8.1 0-14.7 6.6-14.7 14.7s6.6 14.7 14.7 14.7 14.7-6.6 14.7-14.7c-.1-8.1-6.6-14.7-14.7-14.7zm0 23.5c-4.9 0-8.8-4-8.8-8.8 0-4.9 4-8.8 8.8-8.8 4.9 0 8.8 4 8.8 8.8 0 4.8-4 8.8-8.8 8.8zm-14.2 35.9c0 1.6 1.3 2.9 2.9 2.9h32.5c1.6 0 2.9-1.3 2.9-2.9 0-13.4-10.9-24.2-24.2-24.2-4.6 0-9 1.3-12.8 3.7-1.4.9-1.8 2.7-.9 4 .9 1.4 2.7 1.8 4 .9 2.9-1.8 6.3-2.8 9.7-2.8 9.1 0 16.7 6.7 18.1 15.4h-29.3c-1.6.1-2.9 1.4-2.9 3zM56 98.3v73.3c0 3.5 2.8 6.3 6.3 6.3h19.9l7.1 14.3c.5 1 1.5 1.6 2.6 1.6s2.1-.6 2.6-1.6l7.1-14.3h19.9c3.5 0 6.3-2.8 6.3-6.3V98.3c0-3.5-2.8-6.3-6.3-6.3H62.3c-3.5 0-6.3 2.9-6.3 6.3zm66.1 0v73.3c0 .2-.2.4-.4.4H99.9c-1.1 0-2.1.6-2.6 1.6L92 184.3l-5.3-10.7c-.5-1-1.5-1.6-2.6-1.6H62.3c-.2 0-.4-.2-.4-.4V98.3c0-.2.2-.4.4-.4h59.3c.3 0 .5.2.5.4zm0 0"/><path class="st1" d="M92 133.2c8.1 0 14.7-6.6 14.7-14.7s-6.6-14.7-14.7-14.7-14.7 6.6-14.7 14.7 6.6 14.7 14.7 14.7zm0-23.5c4.9 0 8.8 4 8.8 8.8 0 4.9-4 8.8-8.8 8.8-4.9 0-8.8-4-8.8-8.8-.1-4.9 3.9-8.8 8.8-8.8zm-21.3 56.5h42.6c1.6 0 2.9-1.3 2.9-2.9 0-13.4-10.9-24.2-24.2-24.2-13.4 0-24.2 10.9-24.2 24.2-.1 1.6 1.2 2.9 2.9 2.9zM92 144.9c9.1 0 16.7 6.7 18.1 15.4H73.8c1.4-8.7 9-15.4 18.2-15.4zm0 0"/><path class="st2" d="M40.9 37.1C49.2 17.1 68.9 3 92 3c23.4 0 43.4 14.6 51.5 35.2"/><path class="st2" d="M62.7 34.7c4.7-11.4 16-17.5 29.2-17.5 13.4 0 24.8 6.3 29.4 18.1"/></svg>