<svg xmlns="http://www.w3.org/2000/svg" width="114" height="54" viewBox="0 0 114 54"><path fill="#FFF" d="M0 36h11.5v18H7.9V39H3.7v15H0V36zm17.6 0h4.5l4.8 18h-3.8l-.8-3.8h-4.8l-.8 3.8h-3.8l4.7-18zm4 11.2l-1.7-8.1h-.1L18 47.2h3.6zM28.1 36h6.4c.9 0 1.7.2 2.3.5s1.1.7 1.5 1.2c.4.5.7 1.1.8 1.7.2.6.3 1.3.3 2 0 .9-.1 1.8-.4 2.4-.3.7-.7 1.2-1.2 1.7-.5.4-1.1.8-1.8 1-.7.2-1.5.3-2.3.3h-2V54h-3.6V36zm5.2 8.1c.7 0 1.3-.2 1.8-.7.4-.4.7-1.1.7-2 0-.9-.2-1.6-.6-2.1-.4-.5-1-.7-1.9-.7h-1.6v5.5h1.6zM44.1 39h-3.9v-3h11.5v3h-3.9v15h-3.6V39zm9.2-3h3.6v6.9h4.2V36h3.6v18h-3.6v-8h-4.2v8h-3.6V36zm14 0h10.1v3h-6.5v4.2H77v3h-6.1V51h6.7v3H67.3V36zm12.1 0h6.4c.9 0 1.7.2 2.3.5.6.3 1.1.7 1.5 1.2.4.5.7 1.1.8 1.7.2.6.3 1.3.3 2 0 .9-.1 1.8-.4 2.4-.3.7-.7 1.2-1.2 1.7-.5.4-1.1.8-1.8 1-.7.2-1.5.3-2.3.3h-1.9V54h-3.7V36zm5.3 8.1c.7 0 1.3-.2 1.8-.7.4-.4.7-1.1.7-2 0-.9-.2-1.6-.6-2.1-.4-.5-1-.7-1.9-.7h-1.5v5.5h1.5zm7.8-8.1h3.6v6.8H98c.9 0 1.7.1 2.5.3.7.2 1.3.5 1.8.9s.9 1 1.1 1.7c.3.7.4 1.6.4 2.6s-.1 1.9-.4 2.6c-.3.7-.6 1.3-1.1 1.8-.5.5-1.1.8-1.8 1-.7.2-1.5.3-2.4.3h-5.6V36zm4.7 15.2c1.1 0 1.9-.2 2.3-.6.4-.4.7-1.2.7-2.3 0-.6-.1-1-.2-1.4-.1-.4-.3-.6-.5-.9-.2-.2-.5-.4-.9-.4-.4-.1-.8-.1-1.2-.1h-1.2v5.7h1zm8.1-15.2h3.6v18h-3.6V36zM0 6h10.5v3H3.7v4h2.2c.9 0 1.7.1 2.4.3.7.2 1.3.5 1.8.9s.9 1 1.1 1.7c.3.7.4 1.6.4 2.6s-.1 1.9-.4 2.6c-.3.7-.7 1.3-1.2 1.8s-1.2.8-1.9 1c-.7.2-1.6.3-2.5.3H0V6zm4.9 15.2c.5 0 1 0 1.3-.1.4-.1.7-.2.9-.5.2-.2.4-.5.5-.9.1-.4.2-.8.2-1.4 0-1-.2-1.7-.7-2.1-.5-.4-1.2-.5-2.2-.5H3.7v5.5h1.2zm9-15.2h3.5v11.5l4.4-11.6h3.9v18h-3.5V12.5L17.8 24h-3.9V6zm19.3 18.3c-1.1 0-2-.1-2.7-.3-.7-.2-1.3-.6-1.8-1-.5-.5-.8-1-1-1.8-.2-.7-.3-1.5-.3-2.5v-.2H31v.2c0 .4 0 .8.1 1.1.1.4.2.7.3 1 .2.3.4.5.7.7.3.2.7.3 1.2.3.8 0 1.3-.2 1.7-.7.4-.4.6-1.2.6-2.1 0-1-.2-1.8-.6-2.2-.4-.4-1.1-.6-2-.6h-1.1v-2.8h.6c1 0 1.7-.2 2.1-.7.4-.4.6-1.2.6-2.2 0-.8-.2-1.3-.5-1.7-.2-.3-.7-.5-1.2-.5-.6 0-1 .1-1.4.4-.4.2-.6.6-.7 1.2 0 .2-.1.3-.1.5v.5h-3.6v-.2c0-1.7.5-3 1.5-3.8s2.4-1.3 4.3-1.3c1.7 0 3.1.4 4 1.2.9.8 1.4 2 1.4 3.5 0 .4-.1.9-.2 1.3s-.3.8-.5 1.2c-.2.4-.5.7-.8 1-.3.3-.7.5-1.2.6 1 .2 1.8.7 2.3 1.4.6.7.8 1.6.8 2.8 0 1.9-.5 3.3-1.6 4.3-1 .9-2.5 1.4-4.5 1.4zM41.7 6h3.6v6.9h4.2V6h3.6v18h-3.6v-8h-4.2v8h-3.6V6zm14 0h10.1v3h-6.4v4.2h6.1v3h-6.1V21h6.7v3H55.7V6zm17.9 18.3c-1.4 0-2.4-.2-3.3-.7s-1.4-1.1-1.9-1.9c-.4-.8-.7-1.8-.8-2.9-.1-1.1-.2-2.4-.2-3.8s.1-2.6.2-3.8c.1-1.2.4-2.1.8-3 .4-.8 1-1.5 1.9-1.9.8-.5 1.9-.7 3.3-.7 1.3 0 2.3.2 3.1.6.8.4 1.3 1 1.7 1.6.4.6.6 1.3.7 2.1.1.7.1 1.5.1 2.1h-3.6c0-1.3-.2-2.3-.5-2.9-.3-.6-.9-.9-1.7-.9-.5 0-.8.1-1.1.4-.3.2-.5.6-.7 1.2-.2.5-.3 1.3-.4 2.1-.1.9-.1 2-.1 3.2 0 1.4 0 2.5.1 3.3.1.8.2 1.5.4 2s.4.8.7.9.6.2 1 .2c.3 0 .6-.1.9-.2.3-.1.5-.3.7-.7.2-.3.4-.8.5-1.4.1-.6.2-1.4.2-2.4h3.6c0 1-.1 1.9-.2 2.8-.1.9-.4 1.6-.8 2.3-.4.6-1 1.2-1.7 1.5-.8.7-1.7.9-2.9.9z"/></svg>