<?xml version="1.0" encoding="utf-8"?>
<!-- Generator: Adobe Illustrator 19.2.0, SVG Export Plug-In . SVG Version: 6.00 Build 0)  -->
<svg version="1.1" id="Layer_1" xmlns="http://www.w3.org/2000/svg" xmlns:xlink="http://www.w3.org/1999/xlink" x="0px" y="0px"
	 viewBox="0 0 177.1 176.2" style="enable-background:new 0 0 177.1 176.2;" xml:space="preserve">
<style type="text/css">
	.st0{fill:#FFFFFF;}
</style>
<circle cx="88.6" cy="88.1" r="82.8"/>
<g>
	<path class="st0" d="M79.9,122c-22.9-1.4-37.1-12.8-37.1-34.3c0-21.4,14.1-32.4,37.1-33.8V42.2h17.2v11.7
		c23.1,1.4,37.2,12.4,37.2,33.8c0,21.6-14.1,33-37.2,34.3V134H79.9V122z M79.9,107.2V68.7c-11.4,1-18.3,6.8-18.3,19
		C61.5,100,68.5,106.3,79.9,107.2z M97.1,68.7v38.6c11.4-0.9,18.5-7.2,18.5-19.5C115.6,75.4,108.5,69.5,97.1,68.7z"/>
</g>
</svg>
