<?xml version="1.0" encoding="utf-8"?>
<!-- Generator: Adobe Illustrator 19.2.1, SVG Export Plug-In . SVG Version: 6.00 Build 0)  -->
<svg version="1.1" id="Layer_1" xmlns="http://www.w3.org/2000/svg" xmlns:xlink="http://www.w3.org/1999/xlink" x="0px" y="0px"
	 width="183.9px" height="193.8px" viewBox="0 0 183.9 193.8" style="enable-background:new 0 0 183.9 193.8;" xml:space="preserve"
	>
<style type="text/css">
	.st0{fill:#4183D7;}
	.st1{fill:#111111;}
	.st2{fill:none;stroke:#111111;stroke-width:6;stroke-linecap:round;stroke-miterlimit:10;}
</style>
<g>
	<polygon class="st0" points="16.7,112 24.1,98.1 32.2,94.3 47.8,98.8 49.7,99.8 49.7,116.5 13.9,116.5 	"/>
	<polygon class="st0" points="168,111 160.6,97.1 152.5,93.3 137,97.8 135.1,98.8 135.1,115.5 170.9,115.5 	"/>
	<polygon class="st0" points="112.5,159.2 105.1,145.4 97,141.5 81.5,146 70.1,161.1 79.5,163.7 115.3,163.7 	"/>
	<ellipse class="st0" cx="36" cy="71.5" rx="11.8" ry="11.3"/>
	<ellipse class="st0" cx="92.7" cy="118.5" rx="11.8" ry="11.3"/>
	<ellipse class="st0" cx="148" cy="71.5" rx="11.8" ry="11.3"/>
	<path class="st1" d="M6.3,131h19.9l7.1,14.3c0.5,1,1.5,1.6,2.6,1.6c1.1,0,2.1-0.6,2.6-1.6l7.1-14.3h1.5c1.6,0,2.9-1.3,2.9-2.9
		c0-1.6-1.3-2.9-2.9-2.9h-3.3c-1.1,0-2.1,0.6-2.6,1.6L36,137.4l-5.3-10.7c-0.5-1-1.5-1.6-2.6-1.6H6.3c-0.2,0-0.4-0.2-0.4-0.4V51.4
		c0-0.2,0.2-0.4,0.4-0.4h59.3c0.2,0,0.4,0.2,0.4,0.4v31.8c0,1.6,1.3,2.9,2.9,2.9c1.6,0,2.9-1.3,2.9-2.9V51.4c0-3.5-2.8-6.3-6.3-6.3
		H6.3C2.8,45.1,0,48,0,51.4v73.3C0,128.2,2.8,131,6.3,131L6.3,131z M6.3,131"/>
	<path class="st1" d="M36,56.9c-8.1,0-14.7,6.6-14.7,14.7c0,8.1,6.6,14.7,14.7,14.7c8.1,0,14.7-6.6,14.7-14.7
		C50.6,63.5,44.1,56.9,36,56.9L36,56.9z M36,80.4c-4.9,0-8.8-4-8.8-8.8c0-4.9,4-8.8,8.8-8.8c4.9,0,8.8,4,8.8,8.8
		C44.8,76.4,40.8,80.4,36,80.4L36,80.4z M36,80.4"/>
	<path class="st1" d="M36,98c3.5,0,6.8,1,9.7,2.8c1.4,0.9,3.2,0.4,4-0.9c0.9-1.4,0.4-3.2-0.9-4c-3.8-2.4-8.3-3.7-12.8-3.7
		c-13.4,0-24.2,10.9-24.2,24.2c0,1.6,1.3,2.9,2.9,2.9h32.5c1.6,0,2.9-1.3,2.9-2.9c0-1.6-1.3-2.9-2.9-2.9H17.8
		C19.3,104.7,26.8,98,36,98L36,98z M36,98"/>
	<path class="st1" d="M177.6,45.1h-59.3c-3.5,0-6.3,2.8-6.3,6.3v31.8c0,1.6,1.3,2.9,2.9,2.9c1.6,0,2.9-1.3,2.9-2.9V51.4
		c0-0.2,0.2-0.4,0.4-0.4h59.3c0.2,0,0.4,0.2,0.4,0.4v73.3c0,0.2-0.2,0.4-0.4,0.4h-21.7c-1.1,0-2.1,0.6-2.6,1.6l-5.3,10.7l-5.3-10.7
		c-0.5-1-1.5-1.6-2.6-1.6h-3.3c-1.6,0-2.9,1.3-2.9,2.9c0,1.6,1.3,2.9,2.9,2.9h1.5l7.1,14.3c0.5,1,1.5,1.6,2.6,1.6
		c1.1,0,2.1-0.6,2.6-1.6l7.1-14.3h19.9c3.5,0,6.3-2.8,6.3-6.3V51.4C183.9,48,181.1,45.1,177.6,45.1L177.6,45.1z M177.6,45.1"/>
	<path class="st1" d="M148,56.9c-8.1,0-14.7,6.6-14.7,14.7c0,8.1,6.6,14.7,14.7,14.7c8.1,0,14.7-6.6,14.7-14.7
		C162.6,63.5,156.1,56.9,148,56.9L148,56.9z M148,80.4c-4.9,0-8.8-4-8.8-8.8c0-4.9,4-8.8,8.8-8.8c4.9,0,8.8,4,8.8,8.8
		C156.8,76.4,152.8,80.4,148,80.4L148,80.4z M148,80.4"/>
	<path class="st1" d="M133.8,116.3c0,1.6,1.3,2.9,2.9,2.9h32.5c1.6,0,2.9-1.3,2.9-2.9c0-13.4-10.9-24.2-24.2-24.2
		c-4.6,0-9,1.3-12.8,3.7c-1.4,0.9-1.8,2.7-0.9,4c0.9,1.4,2.7,1.8,4,0.9c2.9-1.8,6.3-2.8,9.7-2.8c9.1,0,16.7,6.7,18.1,15.4h-29.3
		C135.1,113.4,133.8,114.7,133.8,116.3L133.8,116.3z M133.8,116.3"/>
	<path class="st1" d="M56,98.3v73.3c0,3.5,2.8,6.3,6.3,6.3h19.9l7.1,14.3c0.5,1,1.5,1.6,2.6,1.6c1.1,0,2.1-0.6,2.6-1.6l7.1-14.3
		h19.9c3.5,0,6.3-2.8,6.3-6.3V98.3c0-3.5-2.8-6.3-6.3-6.3H62.3C58.8,92,56,94.9,56,98.3L56,98.3z M122.1,98.3v73.3
		c0,0.2-0.2,0.4-0.4,0.4H99.9c-1.1,0-2.1,0.6-2.6,1.6L92,184.3l-5.3-10.7c-0.5-1-1.5-1.6-2.6-1.6H62.3c-0.2,0-0.4-0.2-0.4-0.4V98.3
		c0-0.2,0.2-0.4,0.4-0.4h59.3C121.9,97.9,122.1,98.1,122.1,98.3L122.1,98.3z M122.1,98.3"/>
	<path class="st1" d="M92,133.2c8.1,0,14.7-6.6,14.7-14.7c0-8.1-6.6-14.7-14.7-14.7c-8.1,0-14.7,6.6-14.7,14.7
		C77.3,126.6,83.9,133.2,92,133.2L92,133.2z M92,109.7c4.9,0,8.8,4,8.8,8.8c0,4.9-4,8.8-8.8,8.8c-4.9,0-8.8-4-8.8-8.8
		C83.1,113.6,87.1,109.7,92,109.7L92,109.7z M92,109.7"/>
	<path class="st1" d="M70.7,166.2h42.6c1.6,0,2.9-1.3,2.9-2.9c0-13.4-10.9-24.2-24.2-24.2c-13.4,0-24.2,10.9-24.2,24.2
		C67.7,164.9,69,166.2,70.7,166.2L70.7,166.2z M92,144.9c9.1,0,16.7,6.7,18.1,15.4H73.8C75.2,151.6,82.8,144.9,92,144.9L92,144.9z
		 M92,144.9"/>
	<path class="st2" d="M40.9,37.1C49.2,17.1,68.9,3,92,3c23.4,0,43.4,14.6,51.5,35.2"/>
	<path class="st2" d="M62.7,34.7c4.7-11.4,16-17.5,29.2-17.5c13.4,0,24.8,6.3,29.4,18.1"/>
</g>
</svg>
