<?xml version="1.0" encoding="utf-8"?>
<!-- Generator: Adobe Illustrator 19.2.1, SVG Export Plug-In . SVG Version: 6.00 Build 0)  -->
<svg version="1.1" id="Layer_1" xmlns="http://www.w3.org/2000/svg" xmlns:xlink="http://www.w3.org/1999/xlink" x="0px" y="0px"
	 width="183.9px" height="183.9px" viewBox="0 0 183.9 183.9" style="enable-background:new 0 0 183.9 183.9;" xml:space="preserve"
	>
<style type="text/css">
	.st0{fill:#4183D7;}
	.st1{fill:#111111;}
</style>
<polygon class="st0" points="31.6,115.4 38.8,101.8 46.7,98 63.9,102.3 54.7,120.1 28.8,119.8 "/>
<polygon class="st0" points="152.7,115.4 145.5,101.8 137.5,98 120.4,102.3 129.5,120.1 155.5,119.8 "/>
<polygon class="st0" points="119.6,117.8 107.9,104.5 97.5,99.6 73.6,105.3 62.9,124.7 75,128 121,128 "/>
<ellipse class="st0" cx="92" cy="71.6" rx="15.2" ry="14.5"/>
<ellipse class="st0" cx="52" cy="74.8" rx="11.6" ry="11"/>
<ellipse class="st0" cx="132" cy="74.8" rx="11.6" ry="11"/>
<g>
	<path class="st1" d="M132,89.5c8.1,0,14.7-6.6,14.7-14.7c0-8.1-6.6-14.7-14.7-14.7c-8.1,0-14.7,6.6-14.7,14.7
		C117.3,82.9,123.9,89.5,132,89.5L132,89.5z M132,66c4.9,0,8.8,4,8.8,8.8c0,4.9-4,8.8-8.8,8.8c-4.9,0-8.8-4-8.8-8.8
		C123.2,69.9,127.1,66,132,66L132,66z M132,66"/>
	<path class="st1" d="M132,95.3c-4,0-7.9,1-11.4,2.9c-1.4,0.8-2,2.5-1.2,4c0.8,1.4,2.5,2,4,1.2c2.6-1.4,5.6-2.2,8.7-2.2
		c9.1,0,16.7,6.7,18.1,15.4H132c-1.6,0-2.9,1.3-2.9,2.9c0,1.6,1.3,2.9,2.9,2.9h21.3c1.6,0,2.9-1.3,2.9-2.9
		C156.2,106.2,145.3,95.3,132,95.3L132,95.3z M132,95.3"/>
	<path class="st1" d="M52.2,116.6H33.8c1.4-8.7,9-15.4,18.1-15.4c3,0,6,0.7,8.6,2.2c1.4,0.8,3.2,0.2,4-1.2c0.8-1.4,0.2-3.2-1.2-4
		c-3.5-1.9-7.4-2.9-11.4-2.9c-13.4,0-24.2,10.9-24.2,24.2c0,1.6,1.3,2.9,2.9,2.9h21.6c1.6,0,2.9-1.3,2.9-2.9
		C55.2,117.9,53.8,116.6,52.2,116.6L52.2,116.6z M52.2,116.6"/>
	<path class="st1" d="M52,89.5c8.1,0,14.7-6.6,14.7-14.7c0-8.1-6.6-14.7-14.7-14.7c-8.1,0-14.7,6.6-14.7,14.7
		C37.3,82.9,43.9,89.5,52,89.5L52,89.5z M52,66c4.9,0,8.8,4,8.8,8.8c0,4.9-4,8.8-8.8,8.8c-4.9,0-8.8-4-8.8-8.8
		C43.1,69.9,47.1,66,52,66L52,66z M52,66"/>
	<path class="st1" d="M92,90.5c10.4,0,18.9-8.5,18.9-18.9c0-10.4-8.5-18.9-18.9-18.9c-10.4,0-18.9,8.5-18.9,18.9
		C73.1,82,81.5,90.5,92,90.5L92,90.5z M92,58.6c7.2,0,13,5.8,13,13c0,7.2-5.8,13-13,13c-7.2,0-13-5.8-13-13
		C78.9,64.4,84.8,58.6,92,58.6L92,58.6z M92,58.6"/>
	<path class="st1" d="M92,96.4c-17.6,0-31.9,14.3-31.9,31.9c0,1.6,1.3,2.9,2.9,2.9h57.9c1.6,0,2.9-1.3,2.9-2.9
		C123.8,110.7,109.5,96.4,92,96.4L92,96.4z M66.1,125.3c1.5-13,12.5-23.1,25.8-23.1c13.3,0,24.4,10.1,25.8,23.1H66.1z M66.1,125.3"
		/>
	<path class="st1" d="M181,89h-7.1c-1.5-42.9-36.1-77.4-79-79V2.9C94.9,1.3,93.6,0,92,0C90.3,0,89,1.3,89,2.9v7.1
		c-42.9,1.5-77.4,36.1-79,79H2.9C1.3,89,0,90.3,0,92c0,1.6,1.3,2.9,2.9,2.9h7.1c1.5,42.9,36.1,77.4,79,79v7.1c0,1.6,1.3,2.9,2.9,2.9
		c1.6,0,2.9-1.3,2.9-2.9v-7.1c42.9-1.5,77.4-36.1,79-79h7.1c1.6,0,2.9-1.3,2.9-2.9C183.9,90.3,182.6,89,181,89L181,89z M94.9,168v-7
		c0-1.6-1.3-2.9-2.9-2.9c-1.6,0-2.9,1.3-2.9,2.9v7c-39.6-1.5-71.6-33.5-73.1-73.1h7c1.6,0,2.9-1.3,2.9-2.9c0-1.6-1.3-2.9-2.9-2.9h-7
		C17.4,49.4,49.4,17.4,89,15.9v7c0,1.6,1.3,2.9,2.9,2.9c1.6,0,2.9-1.3,2.9-2.9v-7c39.6,1.5,71.6,33.5,73.1,73.1h-7
		c-1.6,0-2.9,1.3-2.9,2.9c0,1.6,1.3,2.9,2.9,2.9h7C166.5,134.5,134.5,166.5,94.9,168L94.9,168z M94.9,168"/>
</g>
</svg>
