<?xml version="1.0" encoding="utf-8"?>
<!-- Generator: Adobe Illustrator 17.0.0, SVG Export Plug-In . SVG Version: 6.00 Build 0)  -->
<!DOCTYPE svg PUBLIC "-//W3C//DTD SVG 1.1//EN" "http://www.w3.org/Graphics/SVG/1.1/DTD/svg11.dtd">
<svg version="1.1" id="Layer_1" xmlns="http://www.w3.org/2000/svg" xmlns:xlink="http://www.w3.org/1999/xlink" x="0px" y="0px"
	 width="756px" height="104.613px" viewBox="0 0 756 104.613" enable-background="new 0 0 756 104.613" xml:space="preserve">
<g>
	<g>
		<path fill="#FFFB28" d="M9.165,88.826l8.426-80.291h46.198l-8.426,80.291H41.175l7.409-70.073H30.763l-7.409,70.073H9.165z"/>
		<path fill="#FFFB28" d="M67.422,88.826l8.426-80.291h22.712c7.07,0,12.059,1.938,14.964,5.812
			c2.292,3.035,3.422,7.151,3.39,12.349c0,1.453-0.081,2.986-0.242,4.601c-0.774,7.361-3.204,12.777-7.288,16.247
			c-4.084,3.471-9.5,5.206-16.247,5.206h-7.603l-3.777,36.078H67.422z M86.598,42.676h4.601c4.229,0,7.174-0.815,8.837-2.445
			c1.663-1.63,2.72-4.641,3.172-9.032c0.226-1.808,0.34-3.421,0.34-4.842c0-0.969-0.049-1.808-0.146-2.519
			c-0.259-1.872-1.114-3.204-2.566-3.995c-1.453-0.791-3.794-1.187-7.022-1.187h-4.697L86.598,42.676z"/>
		<path fill="#FFFB28" d="M139.867,89.795c-4.197,0-7.724-0.598-10.581-1.792s-5.053-2.961-6.586-5.303
			c-1.534-2.34-2.542-5.092-3.026-8.257c-0.259-1.646-0.388-3.421-0.388-5.327c0-1.808,0.112-3.729,0.339-5.763l3.147-29.686
			c0.872-8.587,3.325-15.076,7.361-19.467c4.035-4.39,10.169-6.586,18.401-6.586s13.898,2.212,16.998,6.634
			c2.421,3.422,3.615,8.087,3.584,13.996c0,1.711-0.098,3.519-0.291,5.423l-3.147,29.686c-0.904,8.588-3.39,15.142-7.458,19.661
			C154.153,87.535,148.034,89.795,139.867,89.795z M140.981,79.141c1.452,0,2.728-0.218,3.825-0.654
			c1.098-0.436,1.985-0.993,2.663-1.671c0.679-0.678,1.251-1.582,1.72-2.712c0.468-1.129,0.823-2.259,1.065-3.39
			c0.242-1.13,0.443-2.486,0.605-4.068l3.777-36.223c0.128-1.453,0.193-2.792,0.193-4.019c0-0.807-0.032-1.582-0.097-2.325
			c-0.13-1.808-0.792-3.236-1.985-4.286c-1.195-1.049-2.971-1.574-5.327-1.574c-1.809,0-3.325,0.283-4.552,0.847
			c-1.228,0.565-2.188,1.445-2.882,2.64c-0.694,1.195-1.211,2.454-1.55,3.777c-0.339,1.324-0.605,2.971-0.799,4.939l-3.777,36.223
			c-0.129,1.55-0.193,2.971-0.193,4.261c0,0.711,0.016,1.421,0.048,2.131c0.129,1.873,0.782,3.358,1.962,4.456
			C136.856,78.592,138.624,79.141,140.981,79.141z"/>
		<path fill="#FFFB28" d="M173.91,88.826l8.427-80.291H201.9c3.713,0,6.909,0.339,9.589,1.017c2.68,0.678,4.988,1.792,6.925,3.341
			c2.002,1.485,3.39,3.583,4.165,6.295c0.516,1.776,0.774,3.777,0.774,6.005c0,1.195-0.081,2.454-0.242,3.777
			c-1.13,10.008-5.649,15.562-13.56,16.659c4.617,0.969,7.926,3.067,9.928,6.295c1.518,2.486,2.276,5.731,2.276,9.734
			c0,1.227-0.065,2.535-0.194,3.922c-0.742,7.555-3.229,13.317-7.457,17.288c-4.229,3.971-9.992,5.957-17.288,5.957H173.91z
			 M189.309,78.705h5.521c3.034,0,5.455-0.484,7.264-1.453c1.808-0.969,3.147-2.38,4.02-4.237c0.871-1.856,1.469-4.366,1.791-7.53
			c0.098-1.097,0.146-2.131,0.146-3.1c0-3.293-0.646-5.811-1.937-7.554c-1.68-2.195-4.763-3.309-9.25-3.342h-4.745L189.309,78.705z
			 M193.232,41.368h4.649c4.358,0,7.457-0.936,9.298-2.809c1.84-1.872,2.985-5.02,3.438-9.443c0.098-0.872,0.146-1.663,0.146-2.373
			c0-1.259-0.129-2.34-0.388-3.245c-0.387-1.42-1.194-2.485-2.421-3.196c-1.228-0.709-2.599-1.169-4.116-1.38
			c-1.518-0.209-3.601-0.315-6.247-0.315h-1.985L193.232,41.368z"/>
		<path fill="#FFFB28" d="M250.134,89.795c-4.197,0-7.724-0.598-10.581-1.792s-5.053-2.961-6.586-5.303
			c-1.534-2.34-2.542-5.092-3.026-8.257c-0.259-1.646-0.388-3.421-0.388-5.327c0-1.808,0.112-3.729,0.339-5.763l3.147-29.686
			c0.872-8.587,3.325-15.076,7.361-19.467c4.035-4.39,10.169-6.586,18.401-6.586c8.232,0,13.898,2.212,16.998,6.634
			c2.421,3.422,3.615,8.087,3.584,13.996c0,1.711-0.098,3.519-0.291,5.423l-3.147,29.686c-0.904,8.588-3.39,15.142-7.458,19.661
			C264.42,87.535,258.301,89.795,250.134,89.795z M251.248,79.141c1.452,0,2.728-0.218,3.825-0.654
			c1.098-0.436,1.985-0.993,2.663-1.671c0.679-0.678,1.251-1.582,1.72-2.712c0.468-1.129,0.823-2.259,1.065-3.39
			c0.242-1.13,0.443-2.486,0.605-4.068l3.777-36.223c0.128-1.453,0.193-2.792,0.193-4.019c0-0.807-0.032-1.582-0.097-2.325
			c-0.13-1.808-0.792-3.236-1.985-4.286c-1.195-1.049-2.971-1.574-5.327-1.574c-1.809,0-3.325,0.283-4.552,0.847
			c-1.228,0.565-2.188,1.445-2.882,2.64c-0.694,1.195-1.211,2.454-1.55,3.777c-0.339,1.324-0.605,2.971-0.799,4.939l-3.777,36.223
			c-0.129,1.55-0.193,2.971-0.193,4.261c0,0.711,0.016,1.421,0.048,2.131c0.129,1.873,0.782,3.358,1.962,4.456
			C247.123,78.592,248.89,79.141,251.248,79.141z"/>
		<path fill="#FFFB28" d="M284.177,88.826l8.427-80.291h14.285l-3.535,33.996h3.003l16.61-33.996h14.188l-19.031,37.87
			l11.961,42.421h-14.479l-10.169-37.579h-3.003l-3.971,37.579H284.177z"/>
		<path fill="#FFFB28" d="M333.088,88.826l24.843-80.291h14.77l7.99,80.291h-13.365l-1.355-18.79h-14.093l-5.326,18.79H333.088z
			 M354.443,60.594h10.993l-2.034-33.172L354.443,60.594z"/>
		<path fill="#FFFB28" d="M432.604,104.613l0.145-15.787h-44.116l8.427-80.291h14.285l-7.36,70.364h18.644l7.41-70.364h14.285
			l-7.36,70.364h9.104l-2.712,25.714H432.604z"/>
		<path fill="#FFFB28" d="M453.379,88.826l8.427-80.291h11.961l-5.278,50.605l27.216-50.605h9.782l-8.427,80.291h-12.058
			l5.424-51.623l-27.41,51.623H453.379z"/>
		<path fill="#FFFB28" d="M504.275,88.826l20.048-35.884c-3.229-1.775-5.649-4.504-7.264-8.184c-1.228-2.744-1.84-5.908-1.84-9.492
			c0-1.227,0.063-2.501,0.193-3.826c0.807-7.715,3.535-13.462,8.184-17.24c4.649-3.777,11.525-5.666,20.63-5.666h17.821
			l-8.427,80.291h-14.334l3.438-32.591h-4.504h-1.792l-16.465,32.591H504.275z M541.079,46.114h2.712l2.905-27.555h-3.002
			c-4.553,0-8.056,1.041-10.509,3.124c-2.454,2.083-3.907,5.335-4.358,9.758c-0.097,1.065-0.146,2.083-0.146,3.051
			c0,3.422,0.71,6.07,2.131,7.942C532.684,44.888,536.106,46.114,541.079,46.114z"/>
		<path fill="#FFFB28" d="M564.371,88.826l1.356-12.881h12.93l-1.355,12.881H564.371z M570.474,70.424l2.421-61.792h13.221
			l-10.993,61.792H570.474z"/>
	</g>
</g>
<path fill="#FFFFFF" d="M606.163,27.857c-0.491,0-0.925-0.05-1.301-0.149c-0.378-0.098-0.694-0.233-0.948-0.402
	c-0.255-0.17-0.465-0.389-0.631-0.657s-0.292-0.547-0.375-0.835c-0.084-0.288-0.136-0.631-0.158-1.03
	c-0.023-0.398-0.023-0.781,0-1.148c0.023-0.367,0.06-0.791,0.111-1.272l0.396-3.292c0.236-2.099,0.686-3.571,1.348-4.415
	c0.662-0.844,1.742-1.267,3.242-1.267c0.78,0,1.418,0.116,1.913,0.35c0.496,0.233,0.844,0.552,1.046,0.958
	c0.202,0.407,0.328,0.886,0.381,1.439c0.052,0.552,0.031,1.148-0.066,1.787l-0.066,0.568h-1.355l0.066-0.556
	c0.132-0.924,0.132-1.652,0-2.185c-0.131-0.532-0.354-0.897-0.664-1.095c-0.312-0.197-0.765-0.295-1.361-0.295
	c-0.431,0-0.796,0.055-1.1,0.166c-0.302,0.111-0.56,0.27-0.775,0.48c-0.215,0.209-0.397,0.505-0.546,0.887
	c-0.15,0.383-0.27,0.807-0.362,1.273s-0.178,1.05-0.257,1.752l-0.434,3.634c-0.184,1.594-0.141,2.715,0.131,3.363
	c0.273,0.647,0.904,0.97,1.894,0.97c1.001,0,1.689-0.288,2.065-0.864c0.378-0.576,0.654-1.606,0.83-3.09l0.052-0.545h1.355
	l-0.052,0.521c-0.071,0.632-0.153,1.167-0.25,1.604c-0.097,0.438-0.249,0.884-0.454,1.338c-0.207,0.454-0.459,0.815-0.757,1.083
	c-0.297,0.268-0.693,0.489-1.184,0.663C607.408,27.77,606.83,27.857,606.163,27.857z"/>
<path fill="#FFFFFF" d="M617.566,27.632l1.524-13.022h-3.643l0.118-0.994h8.603l-0.118,0.994h-3.539l-1.513,13.022H617.566z"/>
<path fill="#FFFFFF" d="M625.967,31.172l0.131-1.089c0.659-0.008,1.226-0.071,1.703-0.189c0.478-0.119,0.846-0.284,1.104-0.497
	c0.26-0.213,0.463-0.466,0.612-0.758c0.149-0.291,0.224-0.61,0.224-0.953c0-0.343-0.023-0.708-0.066-1.095l-1.907-12.975h1.393
	l0.948,7.411l0.631,5.09l1.71-5.019l2.577-7.482h1.395l-5.406,14.679c-0.176,0.466-0.379,0.861-0.612,1.184
	c-0.232,0.324-0.483,0.589-0.749,0.794c-0.268,0.205-0.601,0.369-1,0.491c-0.4,0.123-0.799,0.212-1.198,0.266
	C627.06,31.085,626.563,31.132,625.967,31.172z"/>
<path fill="#FFFFFF" d="M637.475,30.887l0.486-4.155c0.631-0.292,1.163-0.73,1.592-1.314c0.43-0.584,0.84-1.484,1.229-2.699
	c0.391-1.216,0.783-2.865,1.179-4.948l0.841-4.155h6.17l-1.526,13.081h1.393l-0.501,4.19h-1.13l0.25-3.255h-8.353l-0.501,3.255
	H637.475z M639.566,26.697h6.485l1.408-12.099h-3.578l-0.749,3.409c-0.554,2.944-1.066,5.007-1.54,6.191
	C641.117,25.383,640.443,26.215,639.566,26.697z"/>
<path fill="#FFFFFF" d="M653.953,27.632l1.631-14.016h1.25l-1.355,11.625l6.84-11.614l1.197-0.011l-1.631,14.016h-1.224
	l1.342-11.518l-6.827,11.518H653.953z"/>
<path fill="#FFFFFF" d="M666.618,27.632l3.867-6.144c-0.781-0.3-1.305-0.801-1.573-1.503c-0.268-0.702-0.354-1.476-0.257-2.32
	c0.053-0.442,0.129-0.836,0.231-1.184c0.1-0.347,0.276-0.708,0.526-1.083c0.249-0.375,0.559-0.685,0.927-0.929
	c0.368-0.245,0.864-0.448,1.485-0.61c0.623-0.161,1.342-0.242,2.157-0.242h2.592l-1.631,14.016h-1.421l0.672-5.753
	c-1.229,0-2.039-0.031-2.433-0.095l-3.604,5.848H666.618z M673.351,21.003h0.935l0.762-6.523h-1.209
	c-0.597,0-1.119,0.059-1.566,0.178c-0.447,0.119-0.801,0.27-1.064,0.456c-0.263,0.185-0.483,0.424-0.659,0.716
	c-0.174,0.292-0.3,0.578-0.375,0.858c-0.074,0.28-0.134,0.61-0.178,0.988c-0.131,1.153,0.061,1.995,0.58,2.528
	C671.094,20.737,672.019,21.003,673.351,21.003z"/>
<path fill="#FFFFFF" d="M603.65,55.636l1.631-14.016h1.25l-1.355,11.625l6.84-11.614l1.196-0.011l-1.631,14.016h-1.224l1.342-11.518
	l-6.827,11.518H603.65z"/>
<path fill="#FFFFFF" d="M617.315,55.636l1.631-14.016h1.434l-0.723,6.238h5.577l0.723-6.238h1.434l-1.631,14.016h-1.434l0.788-6.795
	h-5.577l-0.788,6.795H617.315z"/>
<path fill="#FFFFFF" d="M633.729,55.636l1.524-13.022h-3.643l0.118-0.994h8.603l-0.118,0.994h-3.539l-1.513,13.022H633.729z"/>
<path fill="#FFFFFF" d="M646.509,55.861c-0.43,0-0.809-0.034-1.137-0.101c-0.329-0.067-0.641-0.179-0.935-0.337
	c-0.294-0.157-0.53-0.371-0.71-0.639c-0.179-0.268-0.333-0.604-0.46-1.006c-0.128-0.403-0.191-0.878-0.191-1.427
	c0-0.548,0.031-1.182,0.092-1.9l0.434-3.741c0.105-0.86,0.257-1.606,0.454-2.237c0.197-0.631,0.428-1.142,0.691-1.533
	c0.263-0.391,0.58-0.702,0.953-0.936c0.373-0.233,0.757-0.392,1.151-0.48c0.396-0.086,0.856-0.13,1.381-0.13
	c1.431,0,2.375,0.421,2.835,1.261c0.46,0.84,0.572,2.278,0.336,4.315l-0.184,1.337h-6.367l-0.263,2.238
	c-0.149,1.105-0.163,1.979-0.039,2.622c0.123,0.643,0.344,1.091,0.664,1.343s0.786,0.379,1.4,0.379c0.263,0,0.496-0.015,0.698-0.047
	c0.202-0.031,0.428-0.105,0.678-0.22c0.25-0.114,0.462-0.272,0.638-0.473c0.174-0.202,0.336-0.489,0.48-0.865
	c0.145-0.375,0.249-0.823,0.31-1.343l0.118-1.041h1.408l-0.12,0.923c-0.149,1.295-0.557,2.291-1.222,2.99
	C648.934,55.512,647.904,55.861,646.509,55.861z M644.944,47.538h4.984l0.12-1.089c0.087-0.844,0.124-1.569,0.111-2.172
	c-0.013-0.604-0.184-1.074-0.513-1.409c-0.328-0.336-0.84-0.503-1.532-0.503c-0.623,0-1.122,0.108-1.5,0.325
	c-0.376,0.217-0.696,0.627-0.959,1.231c-0.263,0.604-0.46,1.454-0.593,2.551L644.944,47.538z"/>
<path fill="#FFFFFF" d="M655.254,60.253l2.17-18.633h1.434l-0.131,1.196c0.903-0.947,1.951-1.421,3.144-1.421
	c0.928,0,1.632,0.241,2.11,0.723c0.478,0.481,0.749,1.15,0.815,2.006c0.066,0.857,0.037,1.876-0.086,3.06l-0.315,2.688
	c-0.237,2.052-0.685,3.564-1.342,4.534c-0.659,0.97-1.663,1.456-3.013,1.456c-1.069,0-1.963-0.462-2.684-1.385l-0.67,5.777H655.254z
	 M659.99,54.855c0.938,0,1.615-0.375,2.031-1.125c0.417-0.749,0.73-2.024,0.941-3.824l0.315-2.734
	c0.141-1.105,0.191-2.01,0.152-2.717c-0.04-0.706-0.213-1.226-0.52-1.557c-0.307-0.331-0.79-0.497-1.447-0.497
	c-0.93,0-1.876,0.434-2.842,1.301l-1.156,9.885C658.139,54.432,658.981,54.855,659.99,54.855z"/>
<path fill="#FFFFFF" d="M669.234,55.636l1.631-14.016h1.434l-0.723,6.238h5.577l0.723-6.238h1.434l-1.631,14.016h-1.434l0.788-6.795
	h-5.577l-0.788,6.795H669.234z"/>
<path fill="#FFFFFF" d="M687.067,55.861c-0.43,0-0.809-0.034-1.137-0.101c-0.329-0.067-0.641-0.179-0.935-0.337
	c-0.294-0.157-0.53-0.371-0.71-0.639c-0.179-0.268-0.333-0.604-0.46-1.006c-0.128-0.403-0.191-0.878-0.191-1.427
	c0-0.548,0.031-1.182,0.092-1.9l0.434-3.741c0.105-0.86,0.257-1.606,0.454-2.237c0.197-0.631,0.428-1.142,0.691-1.533
	c0.263-0.391,0.58-0.702,0.953-0.936c0.373-0.233,0.757-0.392,1.151-0.48c0.396-0.086,0.856-0.13,1.381-0.13
	c1.431,0,2.375,0.421,2.835,1.261s0.572,2.278,0.336,4.315l-0.184,1.337h-6.367l-0.263,2.238c-0.149,1.105-0.163,1.979-0.039,2.622
	c0.123,0.643,0.344,1.091,0.664,1.343s0.786,0.379,1.4,0.379c0.263,0,0.496-0.015,0.698-0.047s0.428-0.105,0.678-0.22
	c0.25-0.114,0.462-0.272,0.638-0.473c0.174-0.202,0.336-0.489,0.48-0.865c0.145-0.375,0.249-0.823,0.31-1.343l0.118-1.041h1.408
	l-0.12,0.923c-0.149,1.295-0.557,2.291-1.222,2.99C689.492,55.512,688.462,55.861,687.067,55.861z M685.502,47.538h4.984l0.12-1.089
	c0.087-0.844,0.124-1.569,0.111-2.172c-0.013-0.604-0.184-1.074-0.513-1.409c-0.328-0.336-0.84-0.503-1.532-0.503
	c-0.623,0-1.122,0.108-1.5,0.325c-0.376,0.217-0.696,0.627-0.959,1.231c-0.263,0.604-0.46,1.454-0.593,2.551L685.502,47.538z"/>
<path fill="#FFFFFF" d="M698.418,55.636l1.524-13.022h-3.643l0.118-0.994h8.603l-0.118,0.994h-3.539l-1.513,13.022H698.418z"/>
<path fill="#FFFFFF" d="M708.133,47.906l0.12-1.066h5.564l-0.12,1.066H708.133z"/>
<path fill="#FFFFFF" d="M603.985,84.605l1.763-14.016h1.104l2.553,10.252l4.931-10.252h1.158l-1.513,14.016h-1.248l1.196-10.738
	l-4.552,9.258h-0.46l-2.367-9.222l-1.316,10.702H603.985z"/>
<path fill="#FFFFFF" d="M622.2,84.831c-0.94,0-1.66-0.284-2.164-0.853c-0.505-0.568-0.709-1.306-0.612-2.214
	c0.079-0.623,0.218-1.142,0.42-1.557c0.202-0.415,0.575-0.835,1.119-1.261s1.226-0.836,2.046-1.231
	c0.819-0.395,1.962-0.884,3.426-1.468l0.118-1.007c0.14-1.002,0.161-1.791,0.066-2.367c-0.097-0.576-0.281-0.974-0.552-1.196
	c-0.273-0.221-0.68-0.332-1.224-0.332c-0.342,0-0.651,0.036-0.927,0.107s-0.551,0.195-0.822,0.373
	c-0.273,0.178-0.499,0.45-0.678,0.817c-0.179,0.367-0.3,0.815-0.362,1.343l-0.053,0.391l-1.381-0.023
	c0-0.016,0.006-0.079,0.019-0.19c0.013-0.111,0.021-0.174,0.021-0.19c0.192-1.278,0.647-2.199,1.368-2.764
	c0.719-0.564,1.713-0.847,2.986-0.847c1.298,0,2.169,0.367,2.611,1.101s0.564,1.949,0.362,3.646l-0.828,7.055
	c-0.141,1.381-0.207,2.194-0.197,2.439h-1.224c-0.01-1.058-0.013-1.677-0.013-1.858c-0.334,0.608-0.815,1.107-1.447,1.498
	S622.954,84.831,622.2,84.831z M622.673,83.765c0.622,0,1.201-0.186,1.736-0.556c0.534-0.371,0.991-0.84,1.368-1.409l0.539-4.617
	c-1.876,0.836-3.065,1.397-3.564,1.681c-0.79,0.466-1.311,0.975-1.566,1.527c-0.157,0.324-0.263,0.722-0.315,1.196
	c-0.087,0.757,0.048,1.31,0.407,1.657C621.638,83.591,622.103,83.765,622.673,83.765z"/>
<path fill="#FFFFFF" d="M631.997,89.223l2.17-18.633h1.434l-0.131,1.196c0.903-0.947,1.951-1.421,3.144-1.421
	c0.928,0,1.632,0.241,2.11,0.723c0.478,0.481,0.749,1.15,0.815,2.006c0.066,0.857,0.037,1.876-0.086,3.06l-0.315,2.688
	c-0.237,2.052-0.685,3.564-1.342,4.534c-0.659,0.97-1.663,1.456-3.013,1.456c-1.069,0-1.963-0.462-2.684-1.385l-0.67,5.777H631.997z
	 M636.732,83.824c0.938,0,1.615-0.375,2.031-1.125c0.417-0.749,0.73-2.024,0.941-3.824l0.315-2.734
	c0.141-1.105,0.191-2.01,0.152-2.717c-0.04-0.706-0.213-1.226-0.52-1.557c-0.307-0.331-0.79-0.497-1.447-0.497
	c-0.93,0-1.876,0.434-2.842,1.301l-1.156,9.885C634.882,83.402,635.723,83.824,636.732,83.824z"/>
<path fill="#FFFFFF" d="M645.976,84.605l1.631-14.016h1.434l-0.723,6.321h1.301l4.618-6.321h1.498l-4.867,6.759l3.407,7.257h-1.5
	l-3.262-6.842h-1.301l-0.802,6.842H645.976z"/>
<path fill="#FFFFFF" d="M662.349,84.831c-0.43,0-0.809-0.034-1.137-0.101c-0.329-0.067-0.641-0.179-0.935-0.337
	c-0.294-0.157-0.53-0.371-0.71-0.639c-0.179-0.268-0.333-0.604-0.46-1.006c-0.128-0.403-0.191-0.878-0.191-1.427
	c0-0.548,0.031-1.182,0.092-1.9l0.434-3.741c0.105-0.86,0.257-1.606,0.454-2.237c0.197-0.631,0.428-1.142,0.691-1.533
	s0.58-0.702,0.953-0.936c0.373-0.233,0.757-0.392,1.151-0.48c0.396-0.086,0.856-0.13,1.381-0.13c1.431,0,2.375,0.421,2.835,1.261
	c0.46,0.84,0.572,2.278,0.336,4.315l-0.184,1.337h-6.367l-0.263,2.238c-0.148,1.105-0.163,1.979-0.039,2.622
	c0.123,0.643,0.344,1.091,0.664,1.343c0.32,0.253,0.786,0.379,1.4,0.379c0.263,0,0.496-0.015,0.698-0.047
	c0.202-0.031,0.428-0.105,0.678-0.22c0.25-0.114,0.462-0.272,0.638-0.473c0.174-0.202,0.336-0.489,0.48-0.865
	c0.145-0.375,0.249-0.823,0.31-1.343l0.118-1.041h1.408l-0.12,0.923c-0.149,1.295-0.557,2.291-1.222,2.99
	C664.775,84.481,663.744,84.831,662.349,84.831z M660.785,76.508h4.984l0.12-1.089c0.087-0.844,0.124-1.569,0.111-2.172
	c-0.013-0.604-0.184-1.074-0.513-1.409c-0.328-0.336-0.84-0.503-1.532-0.503c-0.623,0-1.122,0.108-1.5,0.325
	c-0.376,0.217-0.696,0.627-0.959,1.231c-0.263,0.604-0.46,1.454-0.593,2.551L660.785,76.508z"/>
<path fill="#FFFFFF" d="M673.699,84.605l1.524-13.022h-3.643l0.118-0.994h8.603l-0.118,0.994h-3.539l-1.513,13.022H673.699z"/>
<path fill="#FFFFFF" d="M682.996,84.605l1.631-14.016h1.25l-1.355,11.625l6.84-11.614l1.196-0.011l-1.631,14.016h-1.224
	l1.342-11.518l-6.827,11.518H682.996z"/>
<path fill="#FFFFFF" d="M696.66,84.605l1.631-14.016h1.434l-0.723,6.238h5.577l0.723-6.238h1.434l-1.631,14.016h-1.434l0.788-6.795
	h-5.577l-0.788,6.795H696.66z"/>
<path fill="#FFFFFF" d="M710.837,84.605l1.631-14.016h5.445l-0.118,1.018h-4.012l-1.511,12.998H710.837z"/>
<path fill="#FFFFFF" d="M723.37,84.831c-0.94,0-1.66-0.284-2.164-0.853c-0.505-0.568-0.709-1.306-0.612-2.214
	c0.079-0.623,0.218-1.142,0.42-1.557c0.202-0.415,0.575-0.835,1.119-1.261c0.544-0.426,1.226-0.836,2.046-1.231
	c0.819-0.395,1.962-0.884,3.426-1.468l0.118-1.007c0.141-1.002,0.161-1.791,0.066-2.367c-0.097-0.576-0.281-0.974-0.552-1.196
	c-0.273-0.221-0.68-0.332-1.224-0.332c-0.342,0-0.651,0.036-0.927,0.107c-0.276,0.071-0.551,0.195-0.822,0.373
	c-0.273,0.178-0.499,0.45-0.678,0.817c-0.179,0.367-0.3,0.815-0.362,1.343l-0.053,0.391l-1.381-0.023
	c0-0.016,0.006-0.079,0.019-0.19c0.013-0.111,0.021-0.174,0.021-0.19c0.192-1.278,0.648-2.199,1.368-2.764
	c0.719-0.564,1.713-0.847,2.986-0.847c1.298,0,2.169,0.367,2.611,1.101c0.442,0.734,0.563,1.949,0.362,3.646l-0.828,7.055
	c-0.141,1.381-0.207,2.194-0.197,2.439h-1.224c-0.01-1.058-0.013-1.677-0.013-1.858c-0.334,0.608-0.815,1.107-1.447,1.498
	C724.816,84.635,724.124,84.831,723.37,84.831z M723.843,83.765c0.622,0,1.201-0.186,1.736-0.556
	c0.534-0.371,0.991-0.84,1.368-1.409l0.539-4.617c-1.876,0.836-3.065,1.397-3.564,1.681c-0.79,0.466-1.311,0.975-1.566,1.527
	c-0.157,0.324-0.263,0.722-0.315,1.196c-0.087,0.757,0.048,1.31,0.407,1.657C722.808,83.591,723.273,83.765,723.843,83.765z"/>
</svg>
