<?xml version="1.0" encoding="utf-8"?>
<!-- Generator: Adobe Illustrator 19.2.1, SVG Export Plug-In . SVG Version: 6.00 Build 0)  -->
<svg version="1.1" id="Layer_1" xmlns="http://www.w3.org/2000/svg" xmlns:xlink="http://www.w3.org/1999/xlink" x="0px" y="0px"
	 width="577px" height="97px" viewBox="0 0 577 97" style="enable-background:new 0 0 577 97;" xml:space="preserve">
<style type="text/css">
	.st0{fill:#FFFB28;}
</style>
<g>
	<g>
		<path class="st0" d="M0,81.2L8.4,0.9h46.2l-8.4,80.3H32l7.4-70.1H21.6l-7.4,70.1H0z"/>
		<path class="st0" d="M58.3,81.2l8.4-80.3h22.7c7.1,0,12.1,1.9,15,5.8c2.3,3,3.4,7.2,3.4,12.3c0,1.5-0.1,3-0.2,4.6
			c-0.8,7.4-3.2,12.8-7.3,16.2c-4.1,3.5-9.5,5.2-16.2,5.2h-7.6l-3.8,36.1L58.3,81.2L58.3,81.2z M77.4,35.1H82c4.2,0,7.2-0.8,8.8-2.4
			c1.7-1.6,2.7-4.6,3.2-9c0.2-1.8,0.3-3.4,0.3-4.8c0-1,0-1.8-0.1-2.5c-0.3-1.9-1.1-3.2-2.6-4c-1.5-0.8-3.8-1.2-7-1.2H80L77.4,35.1z"
			/>
		<path class="st0" d="M130.7,82.2c-4.2,0-7.7-0.6-10.6-1.8s-5.1-3-6.6-5.3c-1.5-2.3-2.5-5.1-3-8.3c-0.3-1.6-0.4-3.4-0.4-5.3
			c0-1.8,0.1-3.7,0.3-5.8l3.1-29.7c0.9-8.6,3.3-15.1,7.4-19.5c4-4.4,10.2-6.6,18.4-6.6s13.9,2.2,17,6.6c2.4,3.4,3.6,8.1,3.6,14
			c0,1.7-0.1,3.5-0.3,5.4l-3.1,29.7c-0.9,8.6-3.4,15.1-7.5,19.7C145,79.9,138.9,82.2,130.7,82.2z M131.8,71.5c1.5,0,2.7-0.2,3.8-0.7
			c1.1-0.4,2-1,2.7-1.7c0.7-0.7,1.3-1.6,1.7-2.7c0.5-1.1,0.8-2.3,1.1-3.4c0.2-1.1,0.4-2.5,0.6-4.1l3.8-36.2c0.1-1.5,0.2-2.8,0.2-4
			c0-0.8,0-1.6-0.1-2.3c-0.1-1.8-0.8-3.2-2-4.3c-1.2-1-3-1.6-5.3-1.6c-1.8,0-3.3,0.3-4.6,0.8c-1.2,0.6-2.2,1.4-2.9,2.6
			s-1.2,2.5-1.6,3.8c-0.3,1.3-0.6,3-0.8,4.9L124.7,59c-0.1,1.6-0.2,3-0.2,4.3c0,0.7,0,1.4,0,2.1c0.1,1.9,0.8,3.4,2,4.5
			C127.7,71,129.5,71.5,131.8,71.5z"/>
		<path class="st0" d="M164.7,81.2l8.4-80.3h19.6c3.7,0,6.9,0.3,9.6,1c2.7,0.7,5,1.8,6.9,3.3c2,1.5,3.4,3.6,4.2,6.3
			c0.5,1.8,0.8,3.8,0.8,6c0,1.2-0.1,2.5-0.2,3.8c-1.1,10-5.6,15.6-13.6,16.7c4.6,1,7.9,3.1,9.9,6.3c1.5,2.5,2.3,5.7,2.3,9.7
			c0,1.2-0.1,2.5-0.2,3.9c-0.7,7.6-3.2,13.3-7.5,17.3c-4.2,4-10,6-17.3,6L164.7,81.2L164.7,81.2z M180.1,71.1h5.5
			c3,0,5.5-0.5,7.3-1.5c1.8-1,3.1-2.4,4-4.2c0.9-1.9,1.5-4.4,1.8-7.5c0.1-1.1,0.1-2.1,0.1-3.1c0-3.3-0.6-5.8-1.9-7.6
			c-1.7-2.2-4.8-3.3-9.3-3.3H183L180.1,71.1z M184.1,33.8h4.6c4.4,0,7.5-0.9,9.3-2.8c1.8-1.9,3-5,3.4-9.4c0.1-0.9,0.1-1.7,0.1-2.4
			c0-1.3-0.1-2.3-0.4-3.2c-0.4-1.4-1.2-2.5-2.4-3.2c-1.2-0.7-2.6-1.2-4.1-1.4c-1.5-0.2-3.6-0.3-6.2-0.3h-2L184.1,33.8z"/>
		<path class="st0" d="M241,82.2c-4.2,0-7.7-0.6-10.6-1.8s-5.1-3-6.6-5.3c-1.5-2.3-2.5-5.1-3-8.3c-0.3-1.6-0.4-3.4-0.4-5.3
			c0-1.8,0.1-3.7,0.3-5.8l3.1-29.7c0.9-8.6,3.3-15.1,7.4-19.5c4-4.4,10.2-6.6,18.4-6.6c8.2,0,13.9,2.2,17,6.6
			c2.4,3.4,3.6,8.1,3.6,14c0,1.7-0.1,3.5-0.3,5.4l-3.1,29.7c-0.9,8.6-3.4,15.1-7.5,19.7C255.3,79.9,249.1,82.2,241,82.2z
			 M242.1,71.5c1.5,0,2.7-0.2,3.8-0.7c1.1-0.4,2-1,2.7-1.7c0.7-0.7,1.3-1.6,1.7-2.7c0.5-1.1,0.8-2.3,1.1-3.4
			c0.2-1.1,0.4-2.5,0.6-4.1l3.8-36.2c0.1-1.5,0.2-2.8,0.2-4c0-0.8,0-1.6-0.1-2.3c-0.1-1.8-0.8-3.2-2-4.3c-1.2-1-3-1.6-5.3-1.6
			c-1.8,0-3.3,0.3-4.6,0.8c-1.2,0.6-2.2,1.4-2.9,2.6s-1.2,2.5-1.6,3.8c-0.3,1.3-0.6,3-0.8,4.9L235,59c-0.1,1.6-0.2,3-0.2,4.3
			c0,0.7,0,1.4,0,2.1c0.1,1.9,0.8,3.4,2,4.5C238,71,239.7,71.5,242.1,71.5z"/>
		<path class="st0" d="M275,81.2l8.4-80.3h14.3l-3.5,34h3l16.6-34H328l-19,37.9l12,42.4h-14.5l-10.2-37.6h-3l-4,37.6H275z"/>
		<path class="st0" d="M323.9,81.2l24.8-80.3h14.8l8,80.3h-13.4l-1.4-18.8h-14.1l-5.3,18.8H323.9z M345.3,53h11l-2-33.2L345.3,53z"
			/>
		<path class="st0" d="M423.4,97l0.1-15.8h-44.1l8.4-80.3h14.3l-7.4,70.4h18.6l7.4-70.4h14.3l-7.4,70.4h9.1L434.2,97
			C434.2,97,423.4,97,423.4,97z"/>
		<path class="st0" d="M444.2,81.2l8.4-80.3h12l-5.3,50.6l27.2-50.6h9.8l-8.4,80.3h-12.1l5.4-51.6l-27.4,51.6H444.2z"/>
		<path class="st0" d="M495.1,81.2l20-35.9c-3.2-1.8-5.6-4.5-7.3-8.2c-1.2-2.7-1.8-5.9-1.8-9.5c0-1.2,0.1-2.5,0.2-3.8
			c0.8-7.7,3.5-13.5,8.2-17.2c4.6-3.8,11.5-5.7,20.6-5.7h17.8l-8.4,80.3h-14.3l3.4-32.6h-4.5h-1.8l-16.5,32.6L495.1,81.2L495.1,81.2
			z M531.9,38.5h2.7l2.9-27.6h-3c-4.6,0-8.1,1-10.5,3.1c-2.5,2.1-3.9,5.3-4.4,9.8c-0.1,1.1-0.1,2.1-0.1,3.1c0,3.4,0.7,6.1,2.1,7.9
			C523.5,37.3,526.9,38.5,531.9,38.5z"/>
		<path class="st0" d="M555.2,81.2l1.4-12.9h12.9l-1.4,12.9H555.2z M561.3,62.8L563.7,1H577l-11,61.8H561.3z"/>
	</g>
</g>
</svg>
