<?xml version="1.0" encoding="utf-8"?>
<!-- Generator: Adobe Illustrator 19.2.0, SVG Export Plug-In . SVG Version: 6.00 Build 0)  -->
<svg version="1.1" id="Layer_1" xmlns="http://www.w3.org/2000/svg" xmlns:xlink="http://www.w3.org/1999/xlink" x="0px" y="0px"
	 viewBox="0 0 200 20" style="enable-background:new 0 0 200 20;" xml:space="preserve">
<style type="text/css">
	.st0{fill:#CE2027;}
	.st1{fill:#FFFFFF;}
</style>
<path class="st0" d="M88.9,1.1h11.5v18h-3.6v-15h-4.2v15h-3.7V1.1z M106.5,1.1h4.5l4.8,18H112l-0.8-3.8h-4.8l-0.8,3.8h-3.8
	L106.5,1.1z M110.5,12.3l-1.7-8.1h-0.1l-1.8,8.1H110.5z M117,1.1h6.4c0.9,0,1.7,0.2,2.3,0.5s1.1,0.7,1.5,1.2s0.7,1.1,0.8,1.7
	c0.2,0.6,0.3,1.3,0.3,2c0,0.9-0.1,1.8-0.4,2.4c-0.3,0.7-0.7,1.2-1.2,1.7c-0.5,0.4-1.1,0.8-1.8,1c-0.7,0.2-1.5,0.3-2.3,0.3h-2v7.2
	H117V1.1z M122.2,9.2c0.7,0,1.3-0.2,1.8-0.7c0.4-0.4,0.7-1.1,0.7-2s-0.2-1.6-0.6-2.1s-1-0.7-1.9-0.7h-1.6v5.5H122.2z M133,4.1h-3.9
	v-3h11.5v3h-3.9v15h-3.6v-15H133z M142.2,1.1h3.6V8h4.2V1.1h3.6v18H150v-8h-4.2v8h-3.6V1.1z M156.2,1.1h10.1v3h-6.5v4.2h6.1v3h-6.1
	v4.8h6.7v3h-10.3V1.1z M168.3,1.1h6.4c0.9,0,1.7,0.2,2.3,0.5c0.6,0.3,1.1,0.7,1.5,1.2c0.4,0.5,0.7,1.1,0.8,1.7
	c0.2,0.6,0.3,1.3,0.3,2c0,0.9-0.1,1.8-0.4,2.4c-0.3,0.7-0.7,1.2-1.2,1.7c-0.5,0.4-1.1,0.8-1.8,1c-0.7,0.2-1.5,0.3-2.3,0.3H172v7.2
	h-3.7V1.1z M173.6,9.2c0.7,0,1.3-0.2,1.8-0.7c0.4-0.4,0.7-1.1,0.7-2s-0.2-1.6-0.6-2.1c-0.4-0.5-1-0.7-1.9-0.7h-1.5v5.5H173.6z
	 M181.4,1.1h3.6v6.8h1.9c0.9,0,1.7,0.1,2.5,0.3c0.7,0.2,1.3,0.5,1.8,0.9s0.9,1,1.1,1.7c0.3,0.7,0.4,1.6,0.4,2.6s-0.1,1.9-0.4,2.6
	c-0.3,0.7-0.6,1.3-1.1,1.8s-1.1,0.8-1.8,1s-1.5,0.3-2.4,0.3h-5.6V1.1z M186.1,16.3c1.1,0,1.9-0.2,2.3-0.6c0.4-0.4,0.7-1.2,0.7-2.3
	c0-0.6-0.1-1-0.2-1.4c-0.1-0.4-0.3-0.6-0.5-0.9c-0.2-0.2-0.5-0.4-0.9-0.4c-0.4-0.1-0.8-0.1-1.2-0.1h-1.2v5.7H186.1z M194.2,1.1h3.6
	v18h-3.6V1.1z"/>
<path class="st1" d="M1.3,1h10.5v3H5v4h2.2c0.9,0,1.7,0.1,2.4,0.3s1.3,0.5,1.8,0.9s0.9,1,1.1,1.7c0.3,0.7,0.4,1.6,0.4,2.6
	s-0.1,1.9-0.4,2.6c-0.3,0.7-0.7,1.3-1.2,1.8s-1.2,0.8-1.9,1s-1.6,0.3-2.5,0.3H1.3V1z M6.2,16.2c0.5,0,1,0,1.3-0.1
	c0.4-0.1,0.7-0.2,0.9-0.5c0.2-0.2,0.4-0.5,0.5-0.9c0.1-0.4,0.2-0.8,0.2-1.4c0-1-0.2-1.7-0.7-2.1s-1.2-0.5-2.2-0.5H5v5.5H6.2z
	 M15.2,1h3.5v11.5l4.4-11.6H27v18h-3.5V7.5L19.1,19h-3.9V1z M34.5,19.3c-1.1,0-2-0.1-2.7-0.3c-0.7-0.2-1.3-0.6-1.8-1
	c-0.5-0.5-0.8-1-1-1.8c-0.2-0.7-0.3-1.5-0.3-2.5v-0.2h3.6v0.2c0,0.4,0,0.8,0.1,1.1c0.1,0.4,0.2,0.7,0.3,1c0.2,0.3,0.4,0.5,0.7,0.7
	c0.3,0.2,0.7,0.3,1.2,0.3c0.8,0,1.3-0.2,1.7-0.7c0.4-0.4,0.6-1.2,0.6-2.1c0-1-0.2-1.8-0.6-2.2c-0.4-0.4-1.1-0.6-2-0.6
	c-0.1,0-0.3,0-0.5,0s-0.5,0-0.6,0V8.4c0.1,0,0.2,0,0.3,0c0.1,0,0.3,0,0.3,0c1,0,1.7-0.2,2.1-0.7c0.4-0.4,0.6-1.2,0.6-2.2
	c0-0.8-0.2-1.3-0.5-1.7c-0.2-0.3-0.7-0.5-1.2-0.5c-0.6,0-1,0.1-1.4,0.4c-0.4,0.2-0.6,0.6-0.7,1.2c0,0.2-0.1,0.3-0.1,0.5
	c0,0.1,0,0.3,0,0.5H29V5.7c0-1.7,0.5-3,1.5-3.8s2.4-1.3,4.3-1.3c1.7,0,3.1,0.4,4,1.2s1.4,2,1.4,3.5c0,0.4-0.1,0.9-0.2,1.3
	c-0.1,0.4-0.3,0.8-0.5,1.2s-0.5,0.7-0.8,1S38,9.3,37.5,9.4c1,0.2,1.8,0.7,2.3,1.4c0.6,0.7,0.8,1.6,0.8,2.8c0,1.9-0.5,3.3-1.6,4.3
	C38,18.8,36.5,19.3,34.5,19.3z M43,1h3.6v6.9h4.2V1h3.6v18h-3.6v-8h-4.2v8H43V1z M57,1h10.1v3h-6.4v4.2h6.1v3h-6.1V16h6.7v3H57V1z
	 M74.9,19.3c-1.4,0-2.4-0.2-3.3-0.7s-1.4-1.1-1.9-1.9c-0.4-0.8-0.7-1.8-0.8-2.9c-0.1-1.1-0.2-2.4-0.2-3.8s0.1-2.6,0.2-3.8
	s0.4-2.1,0.8-3c0.4-0.8,1-1.5,1.9-1.9c0.8-0.5,1.9-0.7,3.3-0.7c1.3,0,2.3,0.2,3.1,0.6c0.8,0.4,1.3,1,1.7,1.6
	c0.4,0.6,0.6,1.3,0.7,2.1c0.1,0.7,0.1,1.5,0.1,2.1h-3.6c0-1.3-0.2-2.3-0.5-2.9c-0.3-0.6-0.9-0.9-1.7-0.9c-0.5,0-0.8,0.1-1.1,0.4
	c-0.3,0.2-0.5,0.6-0.7,1.2c-0.2,0.5-0.3,1.3-0.4,2.1c-0.1,0.9-0.1,2-0.1,3.2c0,1.4,0,2.5,0.1,3.3s0.2,1.5,0.4,2
	c0.2,0.5,0.4,0.8,0.7,0.9s0.6,0.2,1,0.2c0.3,0,0.6-0.1,0.9-0.2s0.5-0.3,0.7-0.7c0.2-0.3,0.4-0.8,0.5-1.4s0.2-1.4,0.2-2.4h3.6
	c0,1-0.1,1.9-0.2,2.8s-0.4,1.6-0.8,2.3c-0.4,0.6-1,1.2-1.7,1.5C77,19.1,76.1,19.3,74.9,19.3z"/>
</svg>
